<svg width="17" height="8" viewBox="0 0 17 8" fill="none" xmlns="http://www.w3.org/2000/svg">
<path d="M11.9021 0.16223C11.8485 0.213216 11.806 0.273875 11.777 0.340708C11.7479 0.407542 11.733 0.479227 11.733 0.551629C11.733 0.624031 11.7479 0.695716 11.777 0.76255C11.806 0.829383 11.8485 0.890042 11.9021 0.941028L14.5325 3.46389H1.07182C0.920165 3.46389 0.77472 3.52168 0.667483 3.62453C0.560245 3.72738 0.5 3.86688 0.5 4.01234C0.5 4.1578 0.560245 4.2973 0.667483 4.40015C0.77472 4.50301 0.920165 4.56079 1.07182 4.56079H14.5211L11.9021 7.0672C11.7956 7.16996 11.7358 7.30897 11.7358 7.45386C11.7358 7.59875 11.7956 7.73776 11.9021 7.84051C12.0093 7.94266 12.1542 8 12.3053 8C12.4563 8 12.6013 7.94266 12.7084 7.84051L16.3452 4.35238C16.3941 4.30734 16.4331 4.25326 16.4597 4.19342C16.4863 4.13357 16.5 4.06918 16.5 4.00411C16.5 3.93905 16.4863 3.87466 16.4597 3.81481C16.4331 3.75496 16.3941 3.70089 16.3452 3.65585L12.7141 0.16223C12.6609 0.110825 12.5977 0.0700237 12.528 0.0421796C12.4583 0.0143356 12.3836 0 12.3081 0C12.2326 0 12.1579 0.0143356 12.0882 0.0421796C12.0185 0.0700237 11.9553 0.110825 11.9021 0.16223Z" fill="white"/>
</svg>
