<svg width="53" height="50" viewBox="0 0 53 50" fill="none" xmlns="http://www.w3.org/2000/svg">
<path d="M48.1832 31.9753C47.8796 33.7723 47.028 35.4317 45.7449 36.726C44.4618 38.0203 42.81 38.8863 41.0156 39.2055L42.1157 36.7984L40.5228 36.0705L38.6196 40.235C38.531 40.4287 38.5162 40.6481 38.5777 40.852C38.6393 41.0559 38.7731 41.2304 38.954 41.3428L42.8435 43.7585L43.7675 42.2708L41.5396 40.887C43.9532 40.4042 46.1236 39.0964 47.6782 37.1879C49.2328 35.2795 50.0746 32.8895 50.0593 30.4281L48.3079 30.4388C48.3108 30.9536 48.2691 31.4677 48.1832 31.9753Z" fill="#ED711B"/>
<path d="M17.9163 18.2929C18.2213 16.4877 19.0793 14.8218 20.3719 13.5252C21.6644 12.2286 23.3277 11.3655 25.132 11.0549L23.9837 13.5672L25.5766 14.2953L27.48 10.131C27.5686 9.93726 27.5835 9.71785 27.522 9.5139C27.4604 9.30994 27.3266 9.13542 27.1456 9.02304L23.256 6.6073L22.3319 8.09514L24.4406 9.40487C22.0531 9.91133 19.9135 11.2261 18.383 13.1273C16.8526 15.0285 16.0251 17.3996 16.0402 19.8402L17.7916 19.8295C17.7887 19.3146 17.8305 18.8005 17.9163 18.2929Z" fill="#ED711B"/>
<path d="M18.33 46.6119L22.6919 45.2082V44.0901L18.33 45.4938V46.6119Z" fill="#ED711B"/>
<path d="M18.33 44.8261L22.6919 43.4224V42.3042L18.33 43.708V44.8261Z" fill="#ED711B"/>
<path d="M52.5481 9.17968C52.5483 7.81876 52.2459 6.47481 51.6628 5.24516C51.0796 4.01552 50.2303 2.93095 49.1763 2.07C48.1223 1.20905 46.8901 0.593263 45.5688 0.267244C44.2475 -0.0587765 42.8702 -0.0868742 41.5368 0.184984C40.2033 0.456843 38.9469 1.02185 37.8587 1.8391C36.7705 2.65635 35.8776 3.70537 35.2448 4.91021C34.612 6.11505 34.255 7.44555 34.1998 8.80535C34.1445 10.1651 34.3924 11.5202 34.9253 12.7724C34.3316 14.1681 34.0929 15.6892 34.2308 17.1996C34.3686 18.7101 34.8787 20.1628 35.7153 21.4279C36.552 22.693 37.6891 23.7311 39.025 24.4492C40.361 25.1673 41.8541 25.5432 43.3708 25.5431C44.8875 25.5431 46.3806 25.1671 47.7165 24.4489C49.0524 23.7306 50.1894 22.6925 51.026 21.4273C51.8625 20.1621 52.3724 18.7094 52.5102 17.1989C52.6479 15.6884 52.4092 14.1674 51.8153 12.7718C52.3 11.6363 52.5493 10.4143 52.5481 9.17968ZM43.3701 16.6062C41.9013 16.6062 40.4655 16.1707 39.2442 15.3546C38.0229 14.5386 37.071 13.3787 36.5089 12.0217C35.9468 10.6647 35.7998 9.17142 36.0863 7.73081C36.3729 6.2902 37.0802 4.96691 38.1188 3.92829C39.1574 2.88967 40.4807 2.18235 41.9213 1.8958C43.3619 1.60924 44.8551 1.75631 46.2122 2.31841C47.5692 2.88051 48.729 3.83239 49.5451 5.05368C50.3611 6.27498 50.7967 7.71082 50.7967 9.17966C50.7944 11.1486 50.0113 13.0363 48.619 14.4286C47.2268 15.8208 45.3391 16.604 43.3701 16.6062Z" fill="#ED711B"/>
<path d="M43.685 7.88554H43.0598C42.8885 7.88554 42.7241 7.81748 42.603 7.69633C42.4819 7.57518 42.4138 7.41086 42.4138 7.23953C42.4138 7.0682 42.4819 6.90389 42.603 6.78274C42.7241 6.66159 42.8885 6.59353 43.0598 6.59353H45.9084V5.13401H44.1001V3.88635H42.6405V5.17617C42.1291 5.28012 41.6744 5.57034 41.3648 5.99052C41.0552 6.41071 40.9127 6.9309 40.9649 7.45021C41.0172 7.96952 41.2604 8.45092 41.6475 8.80104C42.0346 9.15116 42.5379 9.34503 43.0598 9.34506H43.685C43.792 9.34465 43.8981 9.36539 43.9971 9.40607C44.0961 9.44675 44.1862 9.50659 44.262 9.58214C44.3378 9.65769 44.398 9.74747 44.4391 9.84633C44.4801 9.94519 44.5013 10.0512 44.5013 10.1582C44.5013 10.2653 44.4801 10.3713 44.4391 10.4701C44.398 10.569 44.3378 10.6588 44.262 10.7343C44.1862 10.8099 44.0961 10.8697 43.9971 10.9104C43.8981 10.9511 43.792 10.9718 43.685 10.9714H40.8322V12.4309H42.4753V13.6786H43.9348V12.4164C44.5124 12.3526 45.0436 12.07 45.4192 11.6267C45.7949 11.1833 45.9864 10.6129 45.9544 10.0327C45.9224 9.45247 45.6693 8.90657 45.2472 8.5072C44.8251 8.10783 44.2661 7.8854 43.685 7.88554Z" fill="#ED711B"/>
<path d="M32.4406 31.0071L32.4397 31.0059C32.1658 30.7003 31.8134 30.4756 31.4206 30.3565L17.5766 26.1721C16.8774 25.9587 16.1304 25.9586 15.4311 26.1719L1.58545 30.3567C1.19307 30.4759 0.840906 30.7005 0.56729 31.0059C0.565294 31.0082 0.563694 31.0107 0.561756 31.013L0.561639 31.0127C0.200053 31.4208 0.000286704 31.9471 1.82359e-05 32.4923V43.5007C-0.00192374 43.9799 0.151285 44.4467 0.43673 44.8315C0.722176 45.2163 1.12452 45.4984 1.58359 45.6355L15.4249 49.8392C16.1272 50.0535 16.8774 50.0537 17.5797 49.8396L31.4342 45.6316C31.8904 45.4926 32.2897 45.2102 32.5728 44.8264C32.8559 44.4425 33.0078 43.9777 33.0059 43.5007V32.4924C33.0061 31.9451 32.8052 31.4168 32.4414 31.0079L32.4406 31.0071ZM15.8025 48.4896L1.99057 44.2949C1.81977 44.2439 1.67006 44.139 1.56382 43.9959C1.45758 43.8527 1.40053 43.6791 1.40119 43.5008V32.4924C1.40147 32.4369 1.40737 32.3815 1.41881 32.3272C1.39545 32.3143 1.37496 32.2995 1.35295 32.2856L15.8025 36.6746V48.4896ZM3.11771 31.3574L15.8376 27.5127C16.272 27.3803 16.7361 27.3804 17.1704 27.513L29.8892 31.3573L25.8167 32.5942L19.6003 30.7205C19.5296 30.6986 19.4539 30.6979 19.3828 30.7185L16.1178 31.6456C16.076 31.6576 16.0392 31.6827 16.0129 31.7173C15.9865 31.7519 15.9721 31.7941 15.9718 31.8376C15.9715 31.8811 15.9852 31.9235 16.011 31.9585C16.0367 31.9935 16.0731 32.0193 16.1148 32.0319L21.9218 33.7773L16.5031 35.4231L3.11771 31.3574ZM31.6048 43.5008C31.6057 43.6775 31.5498 43.8499 31.4452 43.9923C31.3406 44.1348 31.193 44.2398 31.0241 44.2919L17.2036 48.4895V36.6746L23.1113 34.8803V39.2246C23.1113 39.2845 23.1251 39.3435 23.1516 39.3972C23.1782 39.4508 23.2168 39.4976 23.2644 39.5339C23.312 39.5702 23.3674 39.5951 23.4261 39.6065C23.4849 39.6179 23.5455 39.6155 23.6032 39.5997L26.7402 38.7357C26.8223 38.7131 26.8948 38.6642 26.9464 38.5964C26.998 38.5286 27.0259 38.4458 27.0258 38.3606V33.6914L31.5839 32.3069C31.5978 32.3678 31.6048 32.43 31.6048 32.4924V43.5008Z" fill="#ED711B"/>
</svg>
