<svg width="81" height="50" viewBox="0 0 81 50" fill="none" xmlns="http://www.w3.org/2000/svg">
<path d="M79.6474 1.00022C79.3806 0.685406 79.0483 0.432767 78.6736 0.260019C78.2989 0.0872709 77.8909 -0.00140117 77.4784 0.000224107H30.3379C29.6864 -0.00805346 29.0528 0.213206 28.5481 0.62523C28.0433 1.03725 27.6997 1.61376 27.5774 2.25373L19.7183 46.8167C19.6515 47.2017 19.6699 47.5967 19.7721 47.9738C19.8743 48.351 20.0578 48.7012 20.3098 48.9998C20.5766 49.3146 20.9089 49.5672 21.2836 49.74C21.6583 49.9127 22.0662 50.0014 22.4788 49.9998H69.6193C70.2708 50.0081 70.9044 49.7868 71.4091 49.3748C71.9139 48.9627 72.2575 48.3862 72.3798 47.7463L80.2389 3.18329C80.3093 2.79833 80.2928 2.40248 80.1904 2.02474C80.0881 1.64701 79.9025 1.29695 79.6474 1.00022ZM51.1124 2.8171H56.563L53.3236 18.1691C51.4504 16.1973 51.4363 16.1973 50.8166 16.1973C50.4223 16.1973 50.4082 16.1973 47.4927 17.9296C47.9997 15.7325 48.535 13.5635 49.0702 11.4367C49.7603 8.63395 50.4786 5.73257 51.1124 2.8171ZM69.6334 47.1829H69.6193L22.4929 47.3097L30.3379 2.8171L48.2251 2.77485C47.6336 5.46496 46.9716 8.15508 46.3378 10.7607C45.5491 13.9297 44.7463 17.1973 44.042 20.5071C44.0003 20.7117 44.0045 20.9231 44.0545 21.1259C44.1045 21.3287 44.199 21.5179 44.3311 21.6797C44.4633 21.8414 44.6297 21.9718 44.8184 22.0613C45.0072 22.1508 45.2134 22.1973 45.4223 22.1972C45.8307 22.1972 45.8307 22.1972 48.8166 20.4226C49.4504 20.0423 50.0842 19.662 50.5772 19.3803C50.8448 19.6479 51.1546 19.9719 51.4645 20.3099C53.5067 22.4789 53.5067 22.4789 54.1405 22.4789C54.4633 22.4796 54.7765 22.3695 55.0277 22.167C55.279 21.9644 55.453 21.6818 55.5208 21.3662L59.4644 2.73259L77.4643 2.69034L69.6334 47.1829Z" fill="#ED711B"/>
<path d="M12.5099 12.5296H22.2281C22.6016 12.5296 22.9599 12.3813 23.224 12.1171C23.4882 11.853 23.6365 11.4947 23.6365 11.1212C23.6365 10.7477 23.4882 10.3894 23.224 10.1253C22.9599 9.86116 22.6016 9.71277 22.2281 9.71277H12.5099C12.1363 9.71277 11.7781 9.86116 11.514 10.1253C11.2498 10.3894 11.1014 10.7477 11.1014 11.1212C11.1014 11.4947 11.2498 11.853 11.514 12.1171C11.7781 12.3813 12.1363 12.5296 12.5099 12.5296Z" fill="#ED711B"/>
<path d="M18.0617 23.5913H6.95898C6.58543 23.5913 6.22719 23.7397 5.96306 24.0038C5.69893 24.268 5.55054 24.6262 5.55054 24.9997C5.55054 25.3733 5.69893 25.7315 5.96306 25.9957C6.22719 26.2598 6.58543 26.4082 6.95898 26.4082H18.0617C18.4352 26.4082 18.7935 26.2598 19.0576 25.9957C19.3217 25.7315 19.4701 25.3733 19.4701 24.9997C19.4701 24.6262 19.3217 24.268 19.0576 24.0038C18.7935 23.7397 18.4352 23.5913 18.0617 23.5913Z" fill="#ED711B"/>
<path d="M15.2858 37.4703H1.40844C1.0349 37.4703 0.676655 37.6187 0.412522 37.8829C0.148389 38.147 0 38.5052 0 38.8788C0 39.2523 0.148389 39.6106 0.412522 39.8747C0.676655 40.1388 1.0349 40.2872 1.40844 40.2872H15.2858C15.6593 40.2872 16.0176 40.1388 16.2817 39.8747C16.5458 39.6106 16.6942 39.2523 16.6942 38.8788C16.6942 38.5052 16.5458 38.147 16.2817 37.8829C16.0176 37.6187 15.6593 37.4703 15.2858 37.4703Z" fill="#ED711B"/>
<path d="M67.7458 36.6196C67.6131 36.4517 67.444 36.3163 67.2512 36.2236C67.0584 36.1308 66.847 36.0832 66.6331 36.0844H55.5346C55.2201 36.0846 54.9147 36.1901 54.6671 36.3841C54.4195 36.5781 54.2439 36.8494 54.1684 37.1548L52.7741 42.704C52.7228 42.9114 52.7194 43.1278 52.7641 43.3367C52.8088 43.5456 52.9004 43.7416 53.032 43.9098C53.1636 44.0781 53.3318 44.2142 53.5238 44.3079C53.7158 44.4016 53.9266 44.4503 54.1403 44.4505H65.2388C65.5533 44.4503 65.8587 44.3447 66.1063 44.1507C66.3539 43.9567 66.5294 43.6854 66.6049 43.3801L67.9993 37.8308C68.0498 37.6228 68.0532 37.4061 68.0093 37.1966C67.9655 36.987 67.8754 36.7899 67.7458 36.6196ZM64.1402 41.6336H55.9431L56.6332 38.9012H64.8303L64.1402 41.6336Z" fill="#ED711B"/>
</svg>
