<svg width="20" height="20" viewBox="0 0 20 20" fill="none" xmlns="http://www.w3.org/2000/svg">
<path d="M10 20C8.02219 20 6.08879 19.4135 4.4443 18.3147C2.79981 17.2159 1.51809 15.6541 0.761209 13.8268C0.00433284 11.9996 -0.1937 9.98891 0.192152 8.0491C0.578004 6.10929 1.53041 4.32746 2.92894 2.92894C4.32746 1.53041 6.10929 0.578004 8.0491 0.192152C9.98891 -0.1937 11.9996 0.00433284 13.8268 0.761209C15.6541 1.51809 17.2159 2.79981 18.3147 4.4443C19.4135 6.08879 20 8.02219 20 10C20 12.6522 18.9464 15.1957 17.0711 17.0711C15.1957 18.9464 12.6522 20 10 20ZM10 1.53847C8.32647 1.53847 6.69052 2.03473 5.29902 2.96449C3.90753 3.89426 2.823 5.21577 2.18256 6.76191C1.54213 8.30806 1.37456 10.0094 1.70105 11.6508C2.02754 13.2921 2.83343 14.7998 4.01679 15.9832C5.20016 17.1666 6.70786 17.9725 8.34924 18.299C9.99062 18.6254 11.6919 18.4579 13.2381 17.8174C14.7842 17.177 16.1057 16.0925 17.0355 14.701C17.9653 13.3095 18.4615 11.6735 18.4615 10C18.4615 7.75586 17.5701 5.60364 15.9832 4.01679C14.3964 2.42995 12.2441 1.53847 10 1.53847Z" fill="#47A100"/>
<path d="M8.84604 14.4616C8.74491 14.4607 8.64496 14.4399 8.5519 14.4003C8.45885 14.3607 8.37452 14.3031 8.30373 14.2309L4.76527 10.6963C4.63975 10.5487 4.57456 10.3591 4.58271 10.1656C4.59087 9.97198 4.67178 9.7886 4.80927 9.65209C4.94675 9.51557 5.1307 9.43597 5.32433 9.42918C5.51796 9.4224 5.70702 9.48894 5.85373 9.6155L9.38834 13.1501C9.49527 13.2577 9.56802 13.3944 9.59743 13.5432C9.62685 13.692 9.61162 13.8462 9.55366 13.9864C9.49571 14.1265 9.39761 14.2464 9.27171 14.331C9.1458 14.4156 8.99771 14.461 8.84604 14.4616Z" fill="#47A100"/>
<path d="M8.84602 14.4615C8.69356 14.4617 8.5445 14.4165 8.41777 14.3317C8.29104 14.247 8.19235 14.1265 8.13424 13.9855C8.07613 13.8446 8.06121 13.6895 8.09139 13.5401C8.12156 13.3906 8.19546 13.2535 8.30371 13.1462L14.146 7.3077C14.2904 7.16336 14.4861 7.08228 14.6902 7.08228C14.8944 7.08228 15.0901 7.16336 15.2345 7.3077C15.3788 7.45204 15.4599 7.64781 15.4599 7.85193C15.4599 8.05606 15.3788 8.25183 15.2345 8.39616L9.38832 14.2308C9.31754 14.303 9.2332 14.3606 9.14015 14.4002C9.04709 14.4398 8.94714 14.4606 8.84602 14.4615Z" fill="#47A100"/>
</svg>
