<svg width="52" height="52" viewBox="0 0 52 52" fill="none" xmlns="http://www.w3.org/2000/svg">
<path d="M26.9138 1.31047L30.0863 3.74151C30.3708 3.96313 30.7263 4.07346 31.0863 4.05186L35.138 3.8622C35.4675 3.84309 35.7939 3.93447 36.0656 4.12185C36.3373 4.30923 36.5388 4.5819 36.638 4.89669L37.6897 8.65532C37.7922 8.98691 38.0132 9.2692 38.3104 9.44842L41.7587 11.5864C42.0517 11.7506 42.2716 12.0199 42.374 12.3398C42.4764 12.6598 42.4537 13.0066 42.3104 13.3105L40.8277 16.8795C40.7074 17.202 40.7074 17.557 40.8277 17.8795L42.2759 21.5174C42.4192 21.8213 42.4419 22.1682 42.3395 22.4881C42.2371 22.8081 42.0172 23.0773 41.7242 23.2416L38.2759 25.3795C37.9787 25.5587 37.7578 25.841 37.6552 26.1726L36.6035 29.9312C36.5043 30.246 36.3029 30.5187 36.0312 30.7061C35.7595 30.8934 35.433 30.9848 35.1035 30.9657L31.1725 30.7071C30.8125 30.6855 30.457 30.7958 30.1725 31.0174L27 33.4485C26.738 33.6498 26.4167 33.7589 26.0862 33.7589C25.7558 33.7589 25.4345 33.6498 25.1725 33.4485L22 31.0174C21.7155 30.7958 21.36 30.6855 21 30.7071L16.9483 30.8967C16.6188 30.9159 16.2923 30.8245 16.0206 30.6371C15.7489 30.4497 15.5475 30.177 15.4483 29.8623L14.3966 26.1036C14.294 25.772 14.0731 25.4897 13.7759 25.3105L10.3276 23.1726C10.0315 23.0112 9.80798 22.7432 9.70231 22.423C9.59664 22.1028 9.61677 21.7544 9.75863 21.4484L11.2069 17.8105C11.3272 17.488 11.3272 17.133 11.2069 16.8105L9.72415 13.2415C9.58229 12.9356 9.56216 12.5872 9.66783 12.267C9.77349 11.9468 9.99705 11.6788 10.2931 11.5174L13.7414 9.37946C14.0386 9.20024 14.2596 8.91795 14.3621 8.58635L15.4138 4.82772C15.513 4.51294 15.7145 4.24026 15.9862 4.05288C16.2579 3.8655 16.5843 3.77413 16.9138 3.79323L20.9655 3.98289C21.3255 4.00449 21.681 3.89416 21.9655 3.67255L25.0862 1.31047C25.3483 1.10914 25.6696 1 26 1C26.3305 1 26.6518 1.10914 26.9138 1.31047Z" stroke="#ED711B" stroke-linecap="round" stroke-linejoin="round"/>
<path d="M25.9999 25.1379C30.2849 25.1379 33.7585 21.6642 33.7585 17.3792C33.7585 13.0943 30.2849 9.62061 25.9999 9.62061C21.7149 9.62061 18.2413 13.0943 18.2413 17.3792C18.2413 21.6642 21.7149 25.1379 25.9999 25.1379Z" stroke="#ED711B" stroke-linecap="round" stroke-linejoin="round"/>
<path d="M51 44.1035L37.7241 26" stroke="#ED711B" stroke-linecap="round" stroke-linejoin="round"/>
<path d="M51 44.103L38.931 42.3789" stroke="#ED711B" stroke-linecap="round" stroke-linejoin="round"/>
<path d="M33.7586 50.9996L38.931 42.3789" stroke="#ED711B" stroke-linecap="round" stroke-linejoin="round"/>
<path d="M33.7588 51.0001L29.3795 31.6897" stroke="#ED711B" stroke-linecap="round" stroke-linejoin="round"/>
<path d="M1 44.1035L14.2759 26" stroke="#ED711B" stroke-linecap="round" stroke-linejoin="round"/>
<path d="M1 44.103L13.069 42.3789" stroke="#ED711B" stroke-linecap="round" stroke-linejoin="round"/>
<path d="M18.2413 50.9996L13.0689 42.3789" stroke="#ED711B" stroke-linecap="round" stroke-linejoin="round"/>
<path d="M18.2413 51.0001L22.6206 31.6897" stroke="#ED711B" stroke-linecap="round" stroke-linejoin="round"/>
</svg>
