<svg width="60" height="54" viewBox="0 0 60 54" fill="none" xmlns="http://www.w3.org/2000/svg">
<path d="M12.6154 33.9465C12.6154 34.094 12.674 34.2356 12.7784 34.3399C12.8827 34.4443 13.0242 34.5029 13.1718 34.5029H41.7659C41.9135 34.5029 42.055 34.4443 42.1593 34.3399C42.2637 34.2356 42.3223 34.094 42.3223 33.9465C42.3223 33.7989 42.2637 33.6573 42.1593 33.553C42.055 33.4486 41.9135 33.39 41.7659 33.39H13.1718C13.0242 33.39 12.8827 33.4486 12.7784 33.553C12.674 33.6573 12.6154 33.7989 12.6154 33.9465Z" fill="#ED711B"/>
<path d="M41.7659 37.6007C41.9134 37.6007 42.055 37.542 42.1593 37.4377C42.2637 37.3333 42.3223 37.1918 42.3223 37.0442C42.3223 36.8967 42.2637 36.7551 42.1593 36.6508C42.055 36.5464 41.9134 36.4878 41.7659 36.4878H36.9174C36.7699 36.4878 36.6283 36.5464 36.524 36.6508C36.4196 36.7551 36.361 36.8967 36.361 37.0442C36.361 37.1918 36.4196 37.3333 36.524 37.4377C36.6283 37.542 36.7699 37.6007 36.9174 37.6007H41.7659Z" fill="#ED711B"/>
<path d="M34.7215 37.0442C34.7215 36.8967 34.6629 36.7551 34.5585 36.6508C34.4542 36.5464 34.3127 36.4878 34.1651 36.4878H13.1718C13.0242 36.4878 12.8827 36.5464 12.7784 36.6508C12.674 36.7551 12.6154 36.8967 12.6154 37.0442C12.6154 37.1918 12.674 37.3333 12.7784 37.4377C12.8827 37.542 13.0242 37.6007 13.1718 37.6007H34.1651C34.3127 37.6007 34.4542 37.542 34.5585 37.4377C34.6629 37.3333 34.7215 37.1918 34.7215 37.0442Z" fill="#ED711B"/>
<path d="M38.263 42.6704L36.8129 42.6645C36.3972 42.665 35.9985 42.8302 35.7043 43.1239C34.7476 44.0911 34.1398 44.3735 33.9551 44.3669C34.006 44.1687 34.0813 43.9776 34.1794 43.7981C34.3707 43.4064 34.5685 43.0012 34.3405 42.6112C34.2696 42.495 34.1698 42.3993 34.0507 42.3334C33.9317 42.2674 33.7976 42.2335 33.6615 42.2349C33.0363 42.1986 32.3496 42.7282 31.6241 43.2896C31.4728 43.4067 31.2847 43.5522 31.1112 43.6767C31.1309 43.6147 31.1507 43.5543 31.1682 43.5007C31.3898 42.8247 31.7608 41.6934 30.7789 41.1766C30.1402 40.8405 29.2504 41.1814 27.9785 42.2495C27.4486 42.6998 26.9448 43.1801 26.4698 43.688C26.3715 43.7968 26.3202 43.9401 26.327 44.0866C26.3338 44.2332 26.3982 44.3711 26.5061 44.4704C26.6141 44.5697 26.7569 44.6224 26.9035 44.6169C27.05 44.6115 27.1886 44.5484 27.2889 44.4413C28.4575 43.1718 29.8722 42.0959 30.2673 42.1655C30.4045 42.2581 30.221 42.8175 30.1107 43.154C29.9224 43.7283 29.7277 44.3222 30.0852 44.7689C30.2483 44.9728 30.6301 45.2538 31.3539 44.8452C31.6858 44.6416 32.0036 44.4159 32.3052 44.1696C32.4969 44.0213 32.7741 43.8068 33.0298 43.6339C32.8218 44.131 32.6535 44.8337 33.3136 45.2875C33.4971 45.4142 33.7154 45.4808 33.9383 45.4781C34.6043 45.4781 35.4607 44.9526 36.4955 43.9066C36.5787 43.824 36.6912 43.7776 36.8085 43.7772L38.2585 43.7832H38.2608C38.4084 43.7835 38.5501 43.7251 38.6546 43.621C38.7592 43.5168 38.8181 43.3754 38.8184 43.2279C38.8187 43.0803 38.7603 42.9386 38.6562 42.8341C38.5521 42.7295 38.4106 42.6706 38.2631 42.6703L38.263 42.6704Z" fill="#ED711B"/>
<path d="M41.8144 42.709H40.1838C40.0362 42.709 39.8946 42.7676 39.7903 42.872C39.6859 42.9763 39.6273 43.1178 39.6273 43.2654C39.6273 43.413 39.6859 43.5545 39.7903 43.6589C39.8946 43.7632 40.0362 43.8219 40.1838 43.8219H41.8144C41.962 43.8219 42.1035 43.7632 42.2079 43.6589C42.3122 43.5545 42.3709 43.413 42.3709 43.2654C42.3709 43.1178 42.3122 42.9763 42.2079 42.872C42.1035 42.7676 41.962 42.709 41.8144 42.709Z" fill="#ED711B"/>
<path d="M19.1198 29.3857H29.6848C29.8323 29.3857 29.9739 29.3271 30.0782 29.2227C30.1826 29.1184 30.2412 28.9768 30.2412 28.8292C30.2412 28.6817 30.1826 28.5401 30.0782 28.4358C29.9739 28.3314 29.8323 28.2728 29.6848 28.2728H19.1198C18.9708 28.2726 18.828 28.2134 18.7226 28.108C18.6173 28.0027 18.558 27.8598 18.5579 27.7108V21.5737C18.558 21.4247 18.6173 21.2818 18.7226 21.1765C18.828 21.0711 18.9708 21.0118 19.1198 21.0117H34.6389C34.7879 21.0118 34.9307 21.0711 35.0361 21.1765C35.1414 21.2818 35.2007 21.4247 35.2008 21.5737V27.7108C35.2007 27.8598 35.1414 28.0027 35.0361 28.108C34.9307 28.2134 34.7879 28.2726 34.6389 28.2728H32.5701C32.4225 28.2728 32.281 28.3314 32.1766 28.4358C32.0723 28.5401 32.0136 28.6817 32.0136 28.8292C32.0136 28.9768 32.0723 29.1184 32.1766 29.2227C32.281 29.3271 32.4225 29.3857 32.5701 29.3857H34.6389C35.0829 29.3852 35.5086 29.2086 35.8226 28.8946C36.1366 28.5806 36.3132 28.1549 36.3137 27.7108V21.5737C36.3132 21.1296 36.1366 20.7039 35.8226 20.3899C35.5086 20.0759 35.0829 19.8993 34.6389 19.8988H19.1198C18.6758 19.8993 18.2501 20.0759 17.9361 20.3899C17.6221 20.7039 17.4455 21.1296 17.445 21.5737V27.7108C17.4455 28.1549 17.6221 28.5806 17.9361 28.8946C18.2501 29.2086 18.6758 29.3852 19.1198 29.3857Z" fill="#ED711B"/>
<path d="M58.9668 12.0165C59.4511 11.4746 60 10.8606 60 10.0568C60 9.2531 59.4511 8.63918 58.9668 8.09735C58.6876 7.78496 58.399 7.46206 58.3132 7.19785C58.2198 6.91033 58.2632 6.46341 58.3053 6.03123C58.3743 5.32167 58.4524 4.51745 57.9974 3.89218C57.5381 3.26112 56.7448 3.08735 56.0448 2.93411C55.6242 2.84197 55.1893 2.7467 54.9509 2.57317C54.7183 2.40387 54.4965 2.0235 54.282 1.65567C53.9186 1.03221 53.5067 0.325667 52.7548 0.0815638C52.031 -0.153377 51.2972 0.166328 50.6499 0.448653C50.2456 0.624958 49.8275 0.807247 49.5138 0.807247C49.2001 0.807247 48.7821 0.624908 48.3778 0.448653C47.7307 0.166452 46.997 -0.153538 46.2729 0.0815638C45.5209 0.325717 45.109 1.03222 44.7456 1.65556C44.5312 2.02338 44.3095 2.40376 44.0768 2.57306C43.8384 2.74659 43.4036 2.84186 42.983 2.93401C42.283 3.08724 41.4897 3.26101 41.0303 3.89219C40.5753 4.51746 40.6534 5.32169 40.7224 6.03112C40.7645 6.4633 40.8079 6.91022 40.7146 7.19774C40.6287 7.46195 40.3401 7.78497 40.0609 8.09724C39.5766 8.63907 39.0277 9.25323 39.0277 10.0569C39.0287 10.2722 39.068 10.4856 39.1436 10.6872H1.3404C0.984989 10.6875 0.644215 10.8288 0.392902 11.0801C0.141588 11.3314 0.000278362 11.6722 0 12.0276V52.4918C0.000275092 52.8473 0.141584 53.188 0.392898 53.4393C0.644212 53.6907 0.984988 53.832 1.3404 53.8322H52.9297C53.2851 53.832 53.6259 53.6907 53.8772 53.4393C54.1285 53.188 54.2698 52.8473 54.2701 52.4918V26.469H56.9905C57.2042 26.4693 57.4121 26.4 57.5829 26.2716C57.7536 26.1432 57.8779 25.9626 57.937 25.7573C57.9961 25.552 57.9868 25.333 57.9103 25.1335C57.8339 24.9339 57.6947 24.7647 57.5135 24.6513C55.3842 23.3359 54.4492 20.6549 54.0488 18.8487C54.1302 18.7181 54.2073 18.5864 54.2821 18.4582C54.4965 18.0903 54.7182 17.71 54.9509 17.5406C55.1893 17.3671 55.6242 17.2718 56.0447 17.1797C56.7447 17.0265 57.5381 16.8527 57.9973 16.2216C58.4525 15.5964 58.3743 14.7921 58.3053 14.0827C58.2633 13.6505 58.2198 13.2035 58.3132 12.916C58.399 12.6517 58.6875 12.3288 58.9668 12.0165ZM41.4943 24.6513C41.3123 24.7622 41.1719 24.93 41.095 25.1288C41.0181 25.3275 41.0089 25.5461 41.0689 25.7506C41.126 25.958 41.2499 26.1407 41.4213 26.2706C41.5928 26.4005 41.8022 26.4702 42.0173 26.469H46.4923C46.5718 26.469 46.6502 26.452 46.7225 26.4192C46.7948 26.3863 46.8593 26.3384 46.9115 26.2786C46.9789 26.2003 48.0155 24.9862 48.8962 22.5814V44.7314C47.956 44.8667 47.0849 45.3028 46.4131 45.9743C45.7413 46.6459 45.3049 47.5169 45.1693 48.457H9.10087C8.96526 47.5171 8.52908 46.6462 7.85755 45.9747C7.18601 45.3031 6.31517 44.867 5.3752 44.7314V19.7881C6.31517 19.6524 7.186 19.2163 7.85754 18.5447C8.52908 17.8732 8.96526 17.0023 9.10087 16.0624H40.9292C40.9598 16.1173 40.9936 16.1704 41.0303 16.2215C41.4896 16.8527 42.283 17.0265 42.983 17.1797C43.4035 17.2718 43.8384 17.3671 44.0768 17.5406C44.3094 17.7099 44.5312 18.0903 44.7456 18.4581C44.8164 18.5796 44.8891 18.7041 44.9658 18.8279C44.5689 20.6334 43.6363 23.3271 41.4943 24.6513ZM45.6973 20.4113C45.7588 20.2155 45.8137 20.0241 45.8645 19.8366C45.9915 19.9193 46.1288 19.9851 46.2728 20.0323C46.9969 20.2675 47.7306 19.9474 48.3778 19.6652C48.4468 19.6351 48.5159 19.6053 48.5852 19.5757C47.9096 22.8503 46.6496 24.7735 46.2203 25.3561H42.4415C43.8783 24.3261 44.9986 22.6259 45.6973 20.4113ZM53.0336 52.4918C53.0336 52.5055 53.0309 52.519 53.0257 52.5316C53.0205 52.5442 53.0129 52.5557 53.0032 52.5653C52.9936 52.575 52.9821 52.5826 52.9695 52.5878C52.9569 52.5931 52.9434 52.5957 52.9297 52.5957H1.3404C1.3129 52.5955 1.28657 52.5846 1.26712 52.5651C1.24768 52.5457 1.23668 52.5193 1.23653 52.4918V12.0276C1.23669 12.0001 1.24768 11.9738 1.26713 11.9543C1.28657 11.9349 1.3129 11.9239 1.3404 11.9237H39.9782C40.0059 11.9548 40.0335 11.9858 40.0609 12.0165C40.3401 12.3287 40.6287 12.6517 40.7146 12.916C40.8079 13.2035 40.7645 13.6505 40.7224 14.0826C40.699 14.323 40.6751 14.5743 40.6707 14.8259H8.52588C8.36193 14.8259 8.2047 14.8911 8.08877 15.007C7.97283 15.1229 7.90768 15.2802 7.90762 15.4441C7.90669 16.2794 7.57444 17.0803 6.98378 17.671C6.39311 18.2616 5.59226 18.5939 4.75694 18.5948C4.59298 18.5949 4.43576 18.66 4.31982 18.7759C4.20389 18.8919 4.13873 19.0491 4.13867 19.2131V45.3064C4.13873 45.4703 4.20389 45.6275 4.31982 45.7435C4.43576 45.8594 4.59298 45.9246 4.75694 45.9246C5.59226 45.9255 6.39311 46.2578 6.98378 46.8485C7.57444 47.4391 7.90669 48.24 7.90762 49.0753C7.90768 49.2393 7.97283 49.3965 8.08877 49.5124C8.2047 49.6283 8.36193 49.6935 8.52588 49.6936H45.7442C45.9082 49.6935 46.0654 49.6283 46.1814 49.5124C46.2973 49.3965 46.3624 49.2393 46.3625 49.0753C46.3635 48.2398 46.6959 47.4388 47.2869 46.8481C47.8778 46.2574 48.6789 45.9253 49.5144 45.9246C49.6784 45.9246 49.8356 45.8594 49.9515 45.7435C50.0675 45.6275 50.1326 45.4703 50.1327 45.3064V22.6354C51.0087 25.0043 52.0297 26.2009 52.0975 26.2786C52.1497 26.3385 52.2141 26.3865 52.2864 26.4193C52.3588 26.4522 52.4373 26.4691 52.5167 26.469H53.0336V52.4918ZM56.5676 25.3562H52.7875C52.3569 24.7718 51.095 22.8458 50.4209 19.5666C50.4972 19.5989 50.5737 19.632 50.6499 19.6652C51.1396 19.8788 51.6786 20.1138 52.2256 20.1138C52.4052 20.1148 52.5838 20.0872 52.7548 20.0323C52.8928 19.9873 53.0246 19.9252 53.1472 19.8475C53.1975 20.0313 53.2516 20.219 53.3118 20.4114C54.0092 22.6259 55.1295 24.3261 56.5676 25.3562ZM58.0448 11.1924C57.6803 11.6002 57.3034 12.022 57.1371 12.5341C56.9641 13.0667 57.0203 13.644 57.0745 14.2024C57.1245 14.7167 57.1762 15.2485 56.9975 15.494C56.8147 15.7453 56.2887 15.8605 55.7802 15.9718C55.235 16.0912 54.6713 16.2146 54.2232 16.5408C53.7807 16.8629 53.4925 17.3572 53.2138 17.8354C52.9494 18.2889 52.6761 18.7578 52.373 18.8562C52.0944 18.9465 51.6116 18.7357 51.1442 18.5318C50.6237 18.3048 50.0854 18.0701 49.5139 18.0701C48.9423 18.0701 48.4041 18.3048 47.8835 18.5318C47.4161 18.7357 46.9327 18.9465 46.6547 18.8562C46.3516 18.7578 46.0783 18.2889 45.8138 17.8354C45.5351 17.3574 45.247 16.8629 44.8044 16.5408C44.3563 16.2148 43.7926 16.0912 43.2476 15.9719C42.739 15.8605 42.213 15.7453 42.0302 15.4939C41.8514 15.2484 41.9032 14.7166 41.9532 14.2023C42.0075 13.644 42.0636 13.0667 41.8907 12.5342C41.7244 12.0221 41.3475 11.6003 40.9829 11.1925C40.6297 10.7971 40.2643 10.3885 40.2643 10.0569C40.2643 9.72531 40.6297 9.31666 40.9829 8.92132C41.3475 8.51352 41.7244 8.09173 41.8907 7.57961C42.0636 7.04707 42.0075 6.46974 41.9532 5.91152C41.9033 5.39723 41.8515 4.86542 42.0302 4.61992C42.2131 4.36851 42.7391 4.25331 43.2477 4.14185C43.7928 4.02255 44.3564 3.89902 44.8045 3.57297C45.2471 3.25093 45.5353 2.75655 45.814 2.27848C46.0783 1.82505 46.3516 1.35616 46.6548 1.25774C46.704 1.24263 46.7553 1.23538 46.8068 1.23625C47.0905 1.23625 47.4927 1.41159 47.8836 1.58209C48.4042 1.80911 48.9425 2.04385 49.5139 2.04385C50.0854 2.04385 50.6237 1.80911 51.1443 1.58209C51.6118 1.37825 52.0953 1.1673 52.3731 1.25774C52.6763 1.35616 52.9496 1.82505 53.214 2.27848C53.4927 2.75655 53.7809 3.25104 54.2235 3.57313C54.6716 3.89929 55.2353 4.02271 55.7804 4.14213C56.289 4.25342 56.8149 4.36867 56.9978 4.61996C57.1764 4.86546 57.1247 5.39726 57.0747 5.91156C57.0204 6.46993 56.9643 7.04725 57.1372 7.57979C57.3035 8.09191 57.6804 8.51371 58.045 8.9215C58.3983 9.31672 58.7636 9.72548 58.7636 10.057C58.7636 10.3884 58.3982 10.7972 58.0448 11.1924Z" fill="#ED711B"/>
<path d="M49.6292 3.82175C48.396 3.79891 47.1837 4.14227 46.1457 4.80842C45.1076 5.47457 44.2904 6.43358 43.7974 7.56418C43.3044 8.69478 43.1577 9.94618 43.3759 11.1601C43.5942 12.3741 44.1675 13.4961 45.0234 14.3842C45.6061 14.9873 46.3041 15.4671 47.076 15.7951C47.8479 16.123 48.6779 16.2923 49.5165 16.293C49.5659 16.293 49.6154 16.2924 49.6648 16.2913C49.8287 16.2874 49.9844 16.2185 50.0975 16.0998C50.2107 15.9811 50.272 15.8223 50.2681 15.6584C50.2642 15.4945 50.1953 15.3388 50.0766 15.2256C49.9579 15.1125 49.7991 15.0511 49.6352 15.055C48.6284 15.0795 47.6377 14.7993 46.7929 14.2513C45.948 13.7032 45.2884 12.9128 44.9003 11.9835C44.5122 11.0542 44.4138 10.0294 44.618 9.04323C44.8222 8.05709 45.3194 7.15559 46.0446 6.4568C46.8796 5.65239 47.9683 5.16317 49.1242 5.07284C50.2802 4.98251 51.4316 5.29668 52.3815 5.9616C53.3314 6.62653 54.0207 7.60087 54.3314 8.71793C54.6422 9.83498 54.5552 11.0253 54.0852 12.0853C54.0187 12.2352 54.0145 12.4053 54.0735 12.5583C54.1326 12.7113 54.2499 12.8346 54.3998 12.9011C54.5498 12.9675 54.7199 12.9717 54.8729 12.9127C55.0259 12.8537 55.1492 12.7363 55.2157 12.5864C55.6327 11.6457 55.8105 10.6165 55.7333 9.59045C55.6561 8.56439 55.3263 7.57336 54.7733 6.70567C54.2202 5.83798 53.4611 5.12058 52.5636 4.61739C51.666 4.11421 50.658 3.84088 49.6292 3.82175Z" fill="#ED711B"/>
<path d="M52.9831 13.657C52.5306 14.0945 51.9993 14.4422 51.4173 14.6817C51.3413 14.712 51.2721 14.757 51.2137 14.8142C51.1552 14.8714 51.1087 14.9396 51.0768 15.0148C51.0449 15.0901 51.0283 15.171 51.0278 15.2528C51.0274 15.3345 51.0432 15.4156 51.0743 15.4912C51.1054 15.5668 51.1512 15.6355 51.209 15.6933C51.2668 15.7511 51.3355 15.7969 51.4112 15.8279C51.4868 15.859 51.5678 15.8748 51.6496 15.8743C51.7314 15.8739 51.8122 15.8572 51.8875 15.8252C52.6137 15.5267 53.2766 15.0931 53.8411 14.5474C53.9592 14.4336 54.0273 14.2776 54.0303 14.1136C54.0333 13.9497 53.9711 13.7912 53.8573 13.6732C53.7435 13.5551 53.5875 13.487 53.4235 13.484C53.2596 13.481 53.1011 13.5432 52.9831 13.657Z" fill="#ED711B"/>
<path d="M51.8365 11.692L51.531 10.7522L52.3305 10.1713C52.4996 10.0485 52.6255 9.87522 52.6901 9.67642C52.7547 9.47762 52.7547 9.26347 52.6901 9.06466C52.6255 8.86586 52.4997 8.6926 52.3306 8.56972C52.1615 8.44685 51.9578 8.38066 51.7488 8.38065H50.7605L50.4552 7.44081C50.3906 7.24203 50.2647 7.06881 50.0956 6.94597C49.9265 6.82312 49.7228 6.75696 49.5138 6.75696C49.3048 6.75696 49.1011 6.82312 48.932 6.94597C48.7629 7.06881 48.637 7.24203 48.5724 7.44081L48.2671 8.38065H47.2788C47.0698 8.38065 46.8661 8.44684 46.697 8.56971C46.5279 8.69258 46.402 8.86584 46.3374 9.06464C46.2729 9.26345 46.2729 9.4776 46.3374 9.6764C46.402 9.87521 46.5279 10.0485 46.697 10.1713L47.4965 10.7522L47.1912 11.692C47.1263 11.8908 47.1261 12.1051 47.1906 12.3041C47.2551 12.503 47.381 12.6764 47.5502 12.7994C47.7194 12.9223 47.9232 12.9884 48.1324 12.9883C48.3415 12.9882 48.5453 12.9217 48.7143 12.7986L49.5138 12.2178L50.3132 12.7986C50.4823 12.9214 50.686 12.9876 50.895 12.9876C51.104 12.9876 51.3077 12.9215 51.4768 12.7986C51.6459 12.6757 51.7718 12.5025 51.8364 12.3037C51.901 12.1049 51.901 11.8908 51.8365 11.692ZM50.8046 9.90434C50.6352 10.0269 50.5091 10.2002 50.4445 10.399C50.3799 10.5979 50.38 10.8122 50.445 11.0109L50.661 11.6756L50.0957 11.265C49.9267 11.1418 49.723 11.0754 49.5139 11.0753C49.3047 11.0753 49.101 11.1417 48.932 11.2649L48.3667 11.6756L48.5825 11.0111C48.6475 10.8123 48.6478 10.5981 48.5831 10.3992C48.5185 10.2003 48.3925 10.027 48.223 9.9044L47.6576 9.49359H48.3565C48.5656 9.49396 48.7694 9.42795 48.9386 9.30506C49.1078 9.18217 49.2336 9.00875 49.2979 8.80978L49.5138 8.14504L49.7298 8.80991C49.7941 9.00885 49.9199 9.18224 50.0891 9.30511C50.2583 9.42799 50.462 9.49399 50.6711 9.49362H51.3701L50.8046 9.90434Z" fill="#ED711B"/>
</svg>
