<svg width="42" height="46" viewBox="0 0 42 46" fill="none" xmlns="http://www.w3.org/2000/svg">
<path d="M41.4694 17.6627L39.8956 7.37234C39.8264 6.91986 39.5986 6.50723 39.2533 6.20907C38.908 5.91091 38.4681 5.74691 38.0131 5.74673C27.5964 5.74673 22.2576 0.601537 22.2119 0.557446C21.8549 0.200405 21.372 0 20.8686 0C20.3652 0 19.8823 0.200405 19.5253 0.557446C19.472 0.601537 14.1331 5.74673 3.71648 5.74673C3.26146 5.74691 2.82153 5.91091 2.47625 6.20907C2.13097 6.50723 1.90314 6.91986 1.83398 7.37234L0.260147 17.6627C-0.44576 22.3372 0.293144 27.1171 2.37681 31.3551C4.46048 35.5931 7.78826 39.0846 11.9096 41.3567L19.9502 45.7658C20.2302 45.9195 20.544 46 20.8629 46C21.1818 46 21.4956 45.9195 21.7756 45.7658L29.8162 41.3567C33.9382 39.0851 37.2668 35.5939 39.3511 31.3559C41.4355 27.1178 42.175 22.3377 41.4694 17.6627ZM27.9947 37.9828L20.8648 41.903L13.7349 37.9905C10.299 36.0981 7.52412 33.1891 5.78602 29.6574C4.04791 26.1257 3.43055 22.1419 4.01753 18.2455L5.35129 9.54045C10.9144 9.41513 16.3146 7.62742 20.8648 4.40484C25.4131 7.62702 30.8112 9.41535 36.3726 9.54237L37.7063 18.2455C38.2938 22.1413 37.6773 26.1247 35.9403 29.6563C34.2032 33.1879 31.4295 36.0973 27.9947 37.9905V37.9828Z" fill="#BE7139" fill-opacity="0.75"/>
<path d="M27.1391 15.8933L17.054 26.0399L14.5904 23.5612C14.4146 23.3781 14.2044 23.2321 13.9719 23.1316C13.7395 23.0312 13.4894 22.9783 13.2364 22.9761C12.9834 22.9739 12.7325 23.0224 12.4984 23.1188C12.2642 23.2151 12.0515 23.3575 11.8726 23.5375C11.6937 23.7175 11.5522 23.9315 11.4564 24.1671C11.3606 24.4027 11.3124 24.6551 11.3146 24.9096C11.3168 25.1642 11.3693 25.4157 11.4692 25.6496C11.5691 25.8835 11.7142 26.095 11.8962 26.2719L15.7069 30.1058C16.0642 30.4652 16.5488 30.6671 17.054 30.6671C17.5593 30.6671 18.0438 30.4652 18.4011 30.1058L29.8333 18.6039C30.1804 18.2424 30.3725 17.7581 30.3681 17.2555C30.3638 16.7529 30.1634 16.2721 29.8101 15.9166C29.4568 15.5612 28.979 15.3596 28.4794 15.3552C27.9798 15.3509 27.4985 15.5441 27.1391 15.8933Z" fill="#BE7139" fill-opacity="0.75"/>
</svg>
