<svg width="53" height="52" viewBox="0 0 53 52" fill="none" xmlns="http://www.w3.org/2000/svg">
<path d="M24.542 37.5474H14.4526C13.5239 37.5474 12.771 38.3002 12.771 39.2289V49.3184C12.771 50.2471 13.5239 50.9999 14.4526 50.9999H24.542C25.4707 50.9999 26.2236 50.2471 26.2236 49.3184V39.2289C26.2236 38.3002 25.4707 37.5474 24.542 37.5474Z" stroke="#ED711B" stroke-width="1.5" stroke-linecap="round" stroke-linejoin="round"/>
<path d="M37.9946 37.5474H27.9051C26.9764 37.5474 26.2236 38.3002 26.2236 39.2289V49.3184C26.2236 50.2471 26.9764 50.9999 27.9051 50.9999H37.9946C38.9233 50.9999 39.6762 50.2471 39.6762 49.3184V39.2289C39.6762 38.3002 38.9233 37.5474 37.9946 37.5474Z" stroke="#ED711B" stroke-width="1.5" stroke-linecap="round" stroke-linejoin="round"/>
<path d="M31.2683 24.0948H21.1789C20.2502 24.0948 19.4973 24.8477 19.4973 25.7764V35.8659C19.4973 36.7946 20.2502 37.5474 21.1789 37.5474H31.2683C32.197 37.5474 32.9499 36.7946 32.9499 35.8659V25.7764C32.9499 24.8477 32.197 24.0948 31.2683 24.0948Z" stroke="#ED711B" stroke-width="1.5" stroke-linecap="round" stroke-linejoin="round"/>
<path d="M51.4472 51V16.0232C51.4474 15.4135 51.2819 14.8153 50.9683 14.2924C50.6548 13.7695 50.2049 13.3417 49.667 13.0547L27.8065 1.3958C27.3194 1.13594 26.7757 1 26.2236 1C25.6715 1 25.1278 1.13594 24.6407 1.3958L2.78023 13.0547C2.24228 13.3417 1.79246 13.7695 1.47889 14.2924C1.16531 14.8153 0.999783 15.4135 1 16.0232V51" stroke="#ED711B" stroke-width="1.5" stroke-linecap="round" stroke-linejoin="round"/>
</svg>
