<svg width="16" height="24" viewBox="0 0 16 24" fill="none" xmlns="http://www.w3.org/2000/svg">
<path d="M7.12474 0.00107183C6.99782 0.0141676 6.87586 0.0574403 6.76907 0.127277C6.66228 0.197113 6.57374 0.291486 6.51086 0.402515L0.111202 11.5961C0.0412493 11.7179 0.00462402 11.856 0.00501142 11.9965C0.00539881 12.137 0.0427853 12.2749 0.113409 12.3964C0.184032 12.5178 0.2854 12.6185 0.407311 12.6884C0.529223 12.7582 0.667377 12.7947 0.80787 12.7941H4.39118L0.0690267 22.8771C-0.00736636 23.0488 -0.0208237 23.242 0.0310169 23.4227C0.0828574 23.6034 0.196683 23.7601 0.352516 23.8652C0.508349 23.9703 0.696232 24.0172 0.883189 23.9976C1.07015 23.978 1.24423 23.8932 1.37489 23.7581L15.7675 9.35767C15.8788 9.24563 15.9545 9.10313 15.985 8.94814C16.0154 8.79315 15.9993 8.63261 15.9387 8.48676C15.8781 8.34091 15.7756 8.21628 15.6442 8.12859C15.5128 8.0409 15.3584 7.99407 15.2005 7.99401H11.8187L15.8862 1.21165C15.9588 1.0903 15.998 0.951875 15.9997 0.81047C16.0013 0.669066 15.9655 0.529741 15.8958 0.406695C15.8261 0.283649 15.725 0.181283 15.6029 0.110027C15.4807 0.0387724 15.3419 0.00117662 15.2005 0.00107183H7.20753C7.17995 -0.000357276 7.15232 -0.000357276 7.12474 0.00107183ZM7.66833 1.59435H13.7899L9.71616 8.38452C9.64361 8.50575 9.60446 8.64404 9.6027 8.78531C9.60095 8.92658 9.63664 9.0658 9.70615 9.1888C9.77567 9.31179 9.87652 9.41418 9.99845 9.48555C10.1204 9.55692 10.259 9.59472 10.4003 9.5951H13.2698L3.17435 19.6905L6.33904 12.3099C6.39112 12.1886 6.41235 12.0562 6.40082 11.9246C6.3893 11.7931 6.34538 11.6664 6.27298 11.556C6.20059 11.4455 6.10197 11.3547 5.98594 11.2917C5.8699 11.2286 5.74006 11.1953 5.60801 11.1946H2.18246L7.66833 1.59435Z" fill="#BE7139" fill-opacity="0.75"/>
</svg>
