<svg width="31" height="46" viewBox="0 0 31 46" fill="none" xmlns="http://www.w3.org/2000/svg">
<path d="M13.6546 0.00205417C13.4114 0.0271523 13.1777 0.110085 12.973 0.243927C12.7683 0.377769 12.5986 0.558635 12.4781 0.771424L0.213119 22.224C0.0790546 22.4575 0.00886198 22.7222 0.00960443 22.9914C0.0103469 23.2607 0.0819984 23.525 0.217348 23.7578C0.352698 23.9905 0.546971 24.1835 0.780616 24.3174C1.01426 24.4512 1.27903 24.5211 1.54829 24.5201H8.41573L0.13229 43.8441C-0.0141177 44.1733 -0.0399088 44.5435 0.0594441 44.8898C0.158797 45.2361 0.376945 45.5364 0.675601 45.7379C0.974256 45.9393 1.33434 46.0292 1.69264 45.9917C2.05094 45.9541 2.38458 45.7916 2.63499 45.5326L30.2185 17.934C30.4319 17.7193 30.577 17.4462 30.6354 17.1492C30.6937 16.8522 30.6629 16.5445 30.5467 16.2649C30.4304 15.9854 30.234 15.7466 29.9823 15.5785C29.7305 15.4105 29.4346 15.3207 29.1318 15.3206H22.6506L30.446 2.32214C30.5852 2.08958 30.6603 1.82428 30.6635 1.55327C30.6667 1.28227 30.5981 1.01525 30.4645 0.779434C30.3309 0.543616 30.1372 0.34743 29.9031 0.210869C29.669 0.0743076 29.4029 0.00225501 29.1318 0.00205417H13.8133C13.7604 -0.000684723 13.7075 -0.000684723 13.6546 0.00205417ZM14.6964 3.05558H26.4286L18.6211 16.069C18.4821 16.3013 18.407 16.5664 18.4037 16.8371C18.4003 17.1079 18.4687 17.3747 18.6019 17.6104C18.7352 17.8461 18.9284 18.0424 19.1621 18.1791C19.3958 18.3159 19.6616 18.3884 19.9323 18.3891H25.4317L6.08368 37.7371L12.1488 23.5921C12.2486 23.3595 12.2893 23.1058 12.2672 22.8537C12.2451 22.6016 12.161 22.3588 12.0222 22.1471C11.8835 21.9355 11.6945 21.7614 11.4721 21.6406C11.2497 21.5197 11.0009 21.4558 10.7478 21.4546H4.18271L14.6964 3.05558Z" fill="#BE7139" fill-opacity="0.75"/>
</svg>
