<svg width="47" height="46" viewBox="0 0 47 46" fill="none" xmlns="http://www.w3.org/2000/svg">
<path d="M0.270721 31.4787L14.792 46L46.2707 14.5213L31.7495 0L0.270721 31.4787ZM14.792 43.3358L2.93493 31.4787L4.90011 29.5136L9.41551 34.029L10.7476 32.6969L6.23222 28.1815L9.61053 24.8031L12.2418 27.4344L13.5739 26.1023L10.9426 23.471L14.3209 20.0927L18.8363 24.6081L20.1684 23.276L15.653 18.7606L19.0313 15.3823L21.6626 18.0136L22.9947 16.6815L20.3635 14.0502L23.7418 10.6719L28.2572 15.1873L29.5893 13.8552L25.0739 9.3398L28.4522 5.9615L31.0834 8.59273L32.4155 7.26063L29.7843 4.62939L31.7495 2.66421L43.6065 14.5213L14.792 43.3358Z" fill="#BE7139" fill-opacity="0.75"/>
</svg>
