<svg width="90" height="62" viewBox="0 0 90 62" fill="none" xmlns="http://www.w3.org/2000/svg">
<path d="M36.0082 32.6165C34.8806 32.6165 33.8012 32.0115 33.1755 31.4683C32.3024 30.7189 31.3192 29.1376 31.3192 26.2637C31.3192 23.1423 31.7592 20.6809 32.8387 19.2027C33.7118 17.9927 34.9425 17.4564 36.462 17.4564C37.6101 17.4564 39.2327 18.2883 39.2327 18.7284C39.2327 19.5809 38.2977 21.4579 37.9195 21.4579C37.6926 21.4579 36.9638 20.6259 36.0838 20.6259C35.0663 20.6259 34.1243 21.9597 34.1243 26.2706C34.1243 27.8313 34.7294 29.4538 36.0013 29.4538C36.5651 29.4538 37.4176 29.0551 38.2289 28.1407C38.8133 27.4738 39.604 29.9076 39.604 30.7877C39.6108 31.4339 38.0708 32.6165 36.0082 32.6165Z" fill="#E8511B"/>
<path d="M48.755 31.7433C48.755 32.1833 48.4869 32.2452 48.0675 32.2452C47.5243 32.2452 46.7543 32.2246 46.5274 32.2246L42.8835 32.2452C42.1753 32.2452 41.3434 32.3689 41.3434 31.9358L41.3847 27.8106L41.4053 24.1254L41.3847 21.2516V18.1302C41.3847 17.6695 41.5703 17.6076 42.7185 17.6076C43.7773 17.6076 45.2005 17.6489 45.7986 17.6489C46.0668 17.6695 46.4243 17.6695 46.8162 17.6695C47.1255 17.6695 47.8543 17.6076 48.0881 17.6076C48.2944 17.6076 48.5281 17.6489 48.5281 18.1302C48.5281 18.4808 48.4662 18.5496 48.425 19.0858C48.4044 19.5465 48.4044 20.124 48.4044 20.4609C48.4044 20.7497 48.0262 20.8115 47.2974 20.8115L46.3005 20.7909C46.0943 20.7909 45.008 20.7909 44.1142 20.8115V21.1897V24.8542C45.0698 24.8749 46.1561 24.8749 46.218 24.8749L47.3868 24.8955C47.5931 24.8955 47.8268 24.9367 47.8268 25.418C47.8268 25.7686 47.8681 25.8374 47.8268 26.2912C47.7856 26.7518 47.8062 26.9168 47.8062 27.2468C47.8062 27.5356 47.4281 27.4943 46.6993 27.4943L45.0355 27.4737C44.8911 27.4737 44.5129 27.4943 44.1417 27.515V27.9344V29.2063C44.5611 29.2063 44.8704 29.2269 45.2486 29.2269L47.0637 29.2063C47.3731 29.2063 48.1018 29.1444 48.3356 29.1444C48.5419 29.1444 48.7756 29.1857 48.7756 29.6669C48.7756 30.0176 48.7137 30.3957 48.6725 30.9389C48.6312 31.3926 48.755 31.5577 48.755 31.7433Z" fill="#E8511B"/>
<path d="M58.463 23.1216C58.463 26.3324 56.4829 28.2438 54.1109 28.2438C53.8634 28.2438 53.5884 28.2231 53.3202 28.1819C53.3202 29.0963 53.3202 31.6402 53.279 31.9496C53.2171 32.3002 53.1346 32.2796 52.8802 32.2796C52.5502 32.2796 52.2545 32.2383 51.9452 32.2383C51.237 32.2383 50.5288 32.3621 50.5288 31.9289C50.5288 31.1589 50.5701 30.3063 50.5701 29.9488V27.8037C50.5701 27.405 50.5907 27.0131 50.5907 26.6143C50.5907 26.1124 50.5701 25.5074 50.5701 24.8474V17.8552C50.5701 17.7727 50.7145 17.7314 50.9001 17.6902C51.1682 17.6283 51.6701 17.4633 53.334 17.4633C55.816 17.4564 58.463 18.9758 58.463 23.1216ZM55.7334 23.4929C55.7334 21.5747 54.984 20.619 53.5884 20.619C53.5058 20.619 53.4233 20.619 53.2996 20.6397V20.7634V25.4318C53.5471 25.473 53.8015 25.4936 54.0077 25.4936C54.984 25.4936 55.7334 25.0605 55.7334 23.4929Z" fill="#E8511B"/>
<path d="M69.2916 34.2872C69.2916 34.514 69.1266 34.5965 68.8103 34.5965C68.4596 34.5965 67.7034 34.6378 67.0433 34.6378C66.8371 34.6378 66.7752 34.3284 66.7752 33.9709C66.7752 33.6821 66.7546 32.864 66.7546 32.2039H66.5689H63.6263C62.7944 32.2039 61.5637 32.2039 60.4637 32.2246V32.7265C60.4637 33.0771 60.443 33.4759 60.443 34.2459C60.443 34.4728 60.278 34.5553 59.9618 34.5553H58.4217C57.9817 34.5553 57.9198 34.4109 57.9198 34.0534L57.9404 31.3239C57.9404 30.9939 57.9404 30.3476 57.961 29.8045V29.5363C57.961 29.2888 58.2911 29.2269 58.5248 29.2269C58.7723 29.2269 59.0886 29.2476 59.398 29.2476C59.4805 29.0825 59.563 28.8969 59.6249 28.6632C60.3537 26.3324 60.4362 23.6648 60.4362 20.7084C60.4362 19.9178 60.498 19.5809 60.498 18.6252C60.498 17.752 60.7455 17.6695 60.9587 17.6695L67.4971 17.6902C67.6827 17.6902 67.8271 17.8552 67.8271 18.2952V22.1247C67.8271 22.7916 67.8065 23.3967 67.8065 23.8917L67.8271 28.0787V29.2476H68.5972C69.0578 29.2476 69.2434 29.2269 69.2434 29.5569V29.8251V31.6814V32.2452V32.7265C69.2503 33.0771 69.2916 33.5171 69.2916 34.2872ZM65.0839 29.2682V27.7281L65.1045 25.418V20.8184C64.3757 20.7978 63.5232 20.7978 63.0419 20.7978C63.0213 24.6273 62.7531 27.3775 62.0243 29.2957H62.1687C62.9388 29.2888 63.9838 29.2888 65.0839 29.2682Z" fill="#E8511B"/>
<path d="M80.4777 34.2872C80.4777 34.514 80.3127 34.5965 79.9964 34.5965C79.6458 34.5965 78.8895 34.6378 78.2295 34.6378C78.0232 34.6378 77.9613 34.3284 77.9613 33.9709C77.9613 33.7028 77.9407 32.8846 77.9407 32.2246C77.5626 32.2452 77.1501 32.2452 76.8544 32.2452H76.5863H76.545L75.5894 32.2246L72.2548 32.2452C71.5467 32.2452 70.7354 32.3689 70.7354 31.9358C70.7354 31.1658 70.7766 30.3132 70.7766 29.9557V27.8106C70.7766 27.4118 70.7973 27.02 70.7973 26.6212C70.7973 26.1193 70.7766 25.5143 70.7766 24.8542V18.2333C70.7766 17.7314 70.8385 17.6695 71.4023 17.6695C72.5711 17.6695 73.0661 17.6902 73.2793 17.7933C73.4236 17.8552 73.4855 18.082 73.4855 18.3364V20.1515V25.3149V29.2544C74.0493 29.2751 74.7162 29.2751 75.4243 29.2751H76.2769C76.2975 27.8381 76.3181 26.3805 76.3181 24.9436C76.3181 22.6129 76.2769 20.2959 76.2769 17.9652C76.2769 17.6764 77.0469 17.6145 77.6107 17.6145C77.9888 17.6145 78.5664 17.6145 78.7795 17.7177C78.9239 17.7795 78.9858 17.9858 78.9858 18.2402V19.4915C78.9858 20.8872 78.9445 24.9299 78.9445 26.1124C78.9445 26.7999 78.9651 28.0719 78.9858 29.2544C79.6939 29.2338 80.1133 29.2338 80.1752 29.2338C80.3814 29.2338 80.4433 29.3782 80.4433 29.8595V31.6814V32.7196C80.4365 33.0771 80.4777 33.5171 80.4777 34.2872Z" fill="#E8511B"/>
<path d="M89.3262 31.7433C89.3262 32.1833 89.0581 32.2452 88.6387 32.2452C88.0955 32.2452 87.3255 32.2246 87.0986 32.2246L83.4547 32.2452C82.7465 32.2452 81.9146 32.3689 81.9146 31.9358L81.9559 27.8106L81.9765 24.1254L81.9559 21.2516V18.1302C81.9559 17.6695 82.1415 17.6076 83.2897 17.6076C84.3485 17.6076 85.7717 17.6489 86.3698 17.6489C86.638 17.6695 86.9955 17.6695 87.3874 17.6695C87.6968 17.6695 88.4255 17.6076 88.6593 17.6076C88.8656 17.6076 89.0993 17.6489 89.0993 18.1302C89.0993 18.4808 89.0374 18.5496 88.9962 19.0858C88.9756 19.5465 88.9756 20.124 88.9756 20.4609C88.9756 20.7497 88.5974 20.8115 87.8686 20.8115L86.8717 20.7909C86.6655 20.7909 85.5792 20.7909 84.6854 20.8115V21.1897V24.8542C85.641 24.8749 86.7273 24.8749 86.7892 24.8749L87.958 24.8955C88.1643 24.8955 88.398 24.9367 88.398 25.418C88.398 25.7686 88.4393 25.8374 88.398 26.2912C88.3568 26.7518 88.3774 26.9168 88.3774 27.2468C88.3774 27.5356 87.9993 27.4943 87.2705 27.4943L85.6067 27.4737C85.4623 27.4737 85.0841 27.4943 84.7129 27.515V27.9344V29.2063C85.1323 29.2063 85.4417 29.2269 85.8198 29.2269L87.6349 29.2063C87.9443 29.2063 88.6731 29.1444 88.9068 29.1444C89.1131 29.1444 89.3468 29.1857 89.3468 29.6669C89.3468 30.0176 89.285 30.3957 89.2437 30.9389C89.2025 31.3926 89.3262 31.5577 89.3262 31.7433Z" fill="#E8511B"/>
<path d="M40.8484 51.0148C40.8484 51.4342 40.8484 52.9605 40.814 53.2561C40.759 53.5518 40.6903 53.5312 40.484 53.5312C40.209 53.5312 39.9615 53.4968 39.7002 53.4968C39.1089 53.4968 38.5177 53.5999 38.5177 53.2355C38.5177 52.5892 38.552 51.8811 38.552 51.5854V49.7979C38.552 49.5366 38.5727 49.1378 38.5727 47.749L38.5933 47.1027C38.3664 47.5565 38.1395 48.0034 37.9333 48.4434C37.4107 49.5022 37.012 50.2173 36.4894 51.2967C36.4207 51.4204 36.2488 51.3998 36.1251 51.3998C35.9875 51.3998 35.8294 51.3654 35.795 51.2967C35.3069 50.2035 34.8531 49.351 34.3718 48.2715L33.8012 46.9996L33.8218 47.7628L33.8768 49.901C33.8768 50.3204 33.8768 52.9605 33.8424 53.2561C33.7874 53.5518 33.7187 53.5312 33.5124 53.5312C33.2374 53.5312 32.9899 53.4968 32.7286 53.4968C32.1374 53.4968 31.5461 53.5999 31.5461 53.2355C31.5461 52.5892 31.5805 51.8811 31.5805 51.5854V49.7979C31.5805 49.4678 31.6011 49.1378 31.6011 48.8078C31.6011 48.3884 31.5805 47.8865 31.5805 47.3296V41.5406C31.5805 41.4169 31.6836 41.3344 33.093 41.3344C33.4231 41.3344 33.5606 41.4719 33.6843 41.8019C34.3993 43.6445 35.9944 47.3984 36.1732 47.3984C36.3313 47.3984 37.9264 43.782 38.662 41.9738C38.8683 41.4856 38.9921 41.3275 39.3221 41.3275C39.6383 41.3275 40.484 41.3481 40.6628 41.3962C40.7865 41.4306 40.8346 41.6231 40.8346 41.8294V42.7163C40.8346 42.9432 40.8553 43.5138 40.8553 43.9126C40.8553 44.2976 40.8003 45.9958 40.8003 46.3808C40.7796 46.8209 40.8484 50.5748 40.8484 51.0148Z" fill="#E8511B"/>
<path d="M49.6282 48.5122V50.8773C49.6282 51.2761 49.6075 51.8536 49.6075 51.9567V53.0155C49.6075 53.2218 49.5525 53.4005 49.4357 53.4487C49.2638 53.538 48.7756 53.5174 48.4594 53.5037C47.9918 53.5037 47.3456 53.4693 47.3456 53.3111V50.8223H47.3112C47.1049 50.8223 45.7299 50.8223 44.7742 50.8429V50.8773C44.7742 51.2761 44.7536 51.8536 44.7536 51.9567V52.9468C44.7536 53.153 44.6986 53.3318 44.5817 53.3799C44.4098 53.4693 43.9217 53.5174 43.6054 53.5037C43.1379 53.5037 42.4916 53.4693 42.4916 53.3111V48.5122C42.4916 44.4076 43.2891 43.2251 43.6879 42.6544C44.1898 41.8913 44.8361 41.1625 46.1905 41.1625C47.1668 41.1625 47.8062 41.5612 48.4319 42.3932C49.0163 43.1563 49.6282 44.6001 49.6282 48.5122ZM47.3524 48.5603V48.5053C47.3524 44.9095 46.7268 43.7957 46.1011 43.7957C45.4067 43.7957 44.8498 44.9095 44.8498 48.5053V48.5397H46.8987C47.0224 48.5603 47.1737 48.5603 47.3524 48.5603Z" fill="#E8511B"/>
<path d="M54.9772 53.8131C54.0352 53.8131 53.1346 53.3112 52.6121 52.8574C51.8833 52.2317 51.0651 50.9117 51.0651 48.5122C51.0651 45.9064 51.4295 43.8576 52.337 42.62C53.0658 41.6094 54.0902 41.1625 55.3622 41.1625C56.3178 41.1625 57.6723 41.8569 57.6723 42.2213C57.6723 42.9363 56.8885 44.497 56.5791 44.497C56.3866 44.497 55.7816 43.8026 55.0528 43.8026C54.2003 43.8026 53.4165 44.9164 53.4165 48.5122C53.4165 49.8185 53.9184 51.1729 54.984 51.1729C55.4516 51.1729 56.1666 50.8429 56.8472 50.0798C57.3354 49.5229 57.9954 51.5579 57.9954 52.2867C57.9885 52.823 56.7029 53.8131 54.9772 53.8131Z" fill="#E8511B"/>
<path d="M65.9158 41.7675V42.565C65.9158 42.9501 65.8951 43.0876 65.8951 43.3626C65.8951 43.6032 65.4964 43.6582 64.8845 43.6582L64.0526 43.6376H63.585C63.6057 43.8988 63.6057 44.2082 63.6057 44.4351V46.7796L63.6263 51.1454C63.6263 51.5648 63.6263 52.9536 63.5919 53.2493C63.5369 53.5449 63.4682 53.5243 63.2619 53.5243C62.9869 53.5243 62.7394 53.4899 62.4781 53.4899C61.8868 53.4899 61.2956 53.593 61.2956 53.2286C61.2956 52.5824 61.3299 51.8742 61.3299 51.5786V47.8796C61.3299 47.5496 61.3506 47.2196 61.3506 46.8896C61.3506 46.4702 61.3299 45.9683 61.3299 45.4114V43.6238H59.2467C59.0886 43.6238 59.0061 43.4519 59.0061 43.1701C59.0267 42.455 59.0061 42.1594 59.0061 41.5887C59.0061 41.3481 59.1298 41.3481 59.3705 41.3275C60.1336 41.3275 63.475 41.3825 64.4995 41.3825C64.7607 41.3825 65.3657 41.3275 65.5583 41.3275C65.7233 41.3344 65.9158 41.3687 65.9158 41.7675Z" fill="#E8511B"/>
<path d="M73.5405 53.0774C73.5405 53.4418 73.3136 53.4968 72.9698 53.4968C72.5161 53.4968 71.8767 53.4761 71.6842 53.4761L68.6453 53.4968C68.054 53.4968 67.3596 53.5999 67.3596 53.2355L67.394 49.791L67.4146 46.7177L67.394 44.3182V41.7125C67.394 41.3275 67.5521 41.2793 68.5078 41.2793C69.3947 41.2793 70.5772 41.3137 71.0791 41.3137C71.306 41.3343 71.6017 41.3343 71.9317 41.3343C72.1929 41.3343 72.798 41.2793 72.9905 41.2793C73.1624 41.2793 73.3549 41.3137 73.3549 41.7125C73.3549 42.0081 73.2999 42.0631 73.2655 42.51C73.2449 42.895 73.2449 43.3763 73.2449 43.6582C73.2449 43.8988 72.9286 43.9538 72.3236 43.9538L71.4917 43.9332C71.3198 43.9332 70.4122 43.9332 69.6697 43.9538V44.2701V47.3296C70.4672 47.3502 71.3748 47.3502 71.4229 47.3502L72.3992 47.3709C72.5711 47.3709 72.7636 47.4052 72.7636 47.804C72.7636 48.0997 72.798 48.1547 72.7636 48.5328C72.7292 48.9178 72.743 49.0553 72.743 49.3303C72.743 49.571 72.4267 49.5366 71.8217 49.5366L70.4329 49.516C70.3091 49.516 69.9997 49.5366 69.6834 49.5503V49.901V50.9598C70.0341 50.9598 70.2954 50.9804 70.6047 50.9804L72.1173 50.9598C72.3786 50.9598 72.9836 50.9048 73.1761 50.9048C73.348 50.9048 73.5405 50.9392 73.5405 51.3379C73.5405 51.6336 73.4855 51.943 73.4511 52.3967C73.4374 52.7817 73.5405 52.9261 73.5405 53.0774Z" fill="#E8511B"/>
<path d="M81.6465 45.8858C81.6465 48.5603 79.9964 50.1623 78.0163 50.1623C77.8101 50.1623 77.5832 50.1416 77.3563 50.1073C77.3563 50.8704 77.3563 52.9949 77.3219 53.2561C77.2669 53.5518 77.1982 53.5312 76.9919 53.5312C76.7169 53.5312 76.4694 53.4968 76.2081 53.4968C75.6169 53.4968 75.0256 53.5999 75.0256 53.2355C75.0256 52.5892 75.06 51.8811 75.06 51.5854V49.7979C75.06 49.4678 75.0806 49.1378 75.0806 48.8078C75.0806 48.3884 75.06 47.8865 75.06 47.3296V41.4925C75.06 41.4237 75.1837 41.3894 75.335 41.355C75.5619 41.3 75.9812 41.1625 77.3701 41.1625C79.4327 41.1556 81.6465 42.4275 81.6465 45.8858ZM79.3639 46.1952C79.3639 44.5933 78.7382 43.7957 77.5763 43.7957C77.5076 43.7957 77.4388 43.7957 77.3357 43.8163V43.9195V47.8109C77.5419 47.8453 77.7551 47.8659 77.927 47.8659C78.7382 47.8659 79.3639 47.5015 79.3639 46.1952Z" fill="#E8511B"/>
<path d="M90 48.5122V50.8773C90 51.2761 89.9794 51.8536 89.9794 51.9567V53.0155C89.9794 53.2218 89.9244 53.4005 89.8075 53.4487C89.6356 53.538 89.1475 53.5174 88.8312 53.5037C88.3637 53.5037 87.7174 53.4693 87.7174 53.3111V50.8223H87.683C87.4768 50.8223 86.1017 50.8223 85.146 50.8429V50.8773C85.146 51.2761 85.1254 51.8536 85.1254 51.9567V52.9468C85.1254 53.153 85.0704 53.3318 84.9535 53.3799C84.7816 53.4693 84.2935 53.5174 83.9772 53.5037C83.5097 53.5037 82.8634 53.4693 82.8634 53.3111V48.5122C82.8634 44.4076 83.661 43.2251 84.0597 42.6544C84.5616 41.8913 85.2079 41.1625 86.5623 41.1625C87.5386 41.1625 88.178 41.5612 88.8037 42.3932C89.395 43.1563 90 44.6001 90 48.5122ZM87.7243 48.5603V48.5053C87.7243 44.9095 87.0986 43.7957 86.473 43.7957C85.7786 43.7957 85.2217 44.9095 85.2217 48.5053V48.5397H87.2705C87.3943 48.5603 87.5524 48.5603 87.7243 48.5603Z" fill="#E8511B"/>
<path d="M22.897 25.1361C20.5387 30.0657 16.6267 35.401 11.0714 33.8403C4.24424 31.9152 2.53229 24.1048 12.5909 13.5031C13.0171 13.0562 13.409 12.6231 13.7665 12.1968C14.0484 11.9493 14.2753 11.6949 14.5022 11.3786C14.6672 11.1518 14.8116 10.9455 14.9216 10.7392C15.3822 9.90732 15.451 9.01353 15.4785 6.21528C15.4991 4.33832 16.1867 2.68825 16.8192 1.5607C17.3692 0.584402 17.878 0 17.878 0C17.878 0 17.5823 0.859414 17.0529 2.58512C16.9773 2.81888 16.9017 3.06639 16.8261 3.32765C16.5786 4.13206 16.7642 5.05335 17.1355 5.94714C17.7749 7.50784 18.9643 8.98603 19.3837 9.64606C19.3837 9.64606 19.3837 9.65294 19.3906 9.65294C19.7962 11.4611 19.4043 12.9462 17.2661 15.1944C12.3777 20.344 13.2097 24.1392 16.5236 25.0743C19.7687 25.9887 21.8657 22.056 22.8763 19.4434C23.0345 20.5709 23.2957 23.0392 22.897 25.1361Z" fill="#ED711B"/>
<path d="M22.897 25.1361C22.8626 25.3218 22.8213 25.5005 22.7801 25.6724C22.4157 27.1094 21.7832 28.8282 21.2331 30.3683C20.7931 31.5989 20.4012 32.7059 20.2431 33.4553C20.2018 33.6547 20.1743 33.8265 20.1675 33.9709C20.1675 34.0259 20.1606 34.0809 20.1606 34.129C19.1018 41.7881 16.386 42.2488 12.6527 44.827C8.56194 47.6459 6.67123 50.2792 7.02187 53.4624C7.25563 55.5525 8.8782 58.4677 11.0027 60.0559C11.1471 60.2209 11.3052 60.3721 11.4839 60.5027C10.322 59.8427 9.51073 58.7977 7.32438 55.7863C4.60176 52.0324 3.62547 51.3517 2.82105 46.814C2.40166 44.4626 3.02044 41.9738 3.2267 40.8187C3.42608 39.6637 3.49483 37.2023 3.32983 35.2841C3.16482 33.3659 0.0709292 27.1506 0.00217604 23.8573C-0.0665771 20.5641 1.51474 18.5496 1.78976 18.1783C2.06477 17.8071 2.42228 17.5045 2.11977 18.1783C1.81726 18.8521 1.44599 19.6565 1.5835 21.4372C1.71413 23.2179 3.76985 23.7198 3.76985 23.7198C3.76985 23.7198 3.53609 22.9498 3.76985 21.1347C4.00361 19.3196 5.61931 16.9683 9.28385 14.9194C11.9308 13.4412 13.0515 12.8431 13.7872 12.1968C13.4297 12.6162 13.0378 13.0493 12.6115 13.5031C2.55292 24.098 4.26487 31.9152 11.0921 33.8403C15.0935 34.9678 18.2493 32.5134 20.5731 29.2063C20.7312 28.9794 20.8894 28.7526 21.0406 28.5188C21.7282 27.4325 22.3538 26.2706 22.897 25.1361Z" fill="#E8511B"/>
<path d="M13.629 61.1834C13.1821 61.1696 12.7352 61.0871 12.309 60.9084C11.9996 60.7846 11.7314 60.654 11.4771 60.5096C11.2983 60.3721 11.1402 60.2277 10.9958 60.0627C11.814 60.6746 12.7077 61.0871 13.629 61.1834Z" fill="#E8511B"/>
<path d="M11.8483 40.2825C11.8483 40.2825 11.2983 41.2037 11.0508 41.355H12.639C12.639 41.355 12.3502 41.0594 12.1509 40.8187C11.9858 40.6125 11.8483 40.2825 11.8483 40.2825Z" fill="white"/>
<path d="M22.8763 19.4365C21.8657 22.0491 19.7687 25.9818 16.5235 25.0674C13.2096 24.1323 12.3777 20.3372 17.2661 15.1876C19.3974 12.9393 19.7962 11.4611 19.3906 9.64606C20.2981 11.0693 20.4975 13.6062 19.7549 15.2838C19.0124 16.9614 18.6205 17.7246 18.5861 18.7696C18.5518 19.8146 19.9543 20.8322 21.5013 20.6603C22.9451 20.5022 22.8076 19.0309 22.7801 18.8315C22.7938 18.9071 22.8282 19.1202 22.8763 19.4365Z" fill="#F3961B"/>
<path d="M13.629 61.1834C13.1821 61.1696 12.7352 61.0871 12.309 60.9084C11.9996 60.7846 11.7314 60.654 11.4771 60.5096C11.2983 60.3721 11.1402 60.2277 10.9958 60.0627C11.814 60.6746 12.7077 61.0871 13.629 61.1834Z" stroke="#ED711B" stroke-miterlimit="10"/>
<path d="M14.3028 56.797C13.1753 60.4478 18.3936 59.4027 18.5174 59.3752C18.4418 59.4302 16.0079 61.259 13.629 61.1765C12.7077 61.0803 11.814 60.6678 10.9958 60.0559C10.4389 59.4302 10.1226 58.6189 10.0057 57.8008C9.73761 55.9169 10.2258 53.4624 13.1684 51.6199C15.9529 49.8666 18.9574 50.3135 20.8275 42.0357C20.8756 42.2488 20.9169 42.4619 20.965 42.6819C21.4325 44.8339 20.9444 47.8866 19.2187 50.3479C17.5067 52.7818 15.2035 53.8956 14.3028 56.797Z" fill="#F3961B"/>
<path d="M20.8206 42.0425C18.9505 50.3204 15.9529 49.8735 13.1615 51.6198C10.2189 53.4693 9.73074 55.9238 9.99888 57.8007C10.1158 58.6189 10.4389 59.4302 10.9889 60.0558C8.85758 58.4677 7.235 55.5594 7.00812 53.4624C6.65748 50.2792 8.54819 47.6459 12.639 44.827C16.3723 42.2488 19.088 41.795 20.1468 34.129C19.9612 37.608 20.2843 39.533 20.8206 42.0425Z" fill="#ED711B"/>
<path d="M15.2241 44.1395C15.1141 43.287 14.3922 42.345 13.904 42.0769C13.409 41.8088 13.574 41.8981 13.574 41.8981L11.924 41.8844H11.8483H11.7727L10.1226 41.8981C10.1226 41.8981 10.2876 41.8088 9.79261 42.0769C9.29759 42.345 8.58256 43.287 8.47255 44.1395C8.36255 44.992 9.02945 46.2709 9.02945 46.1333C9.02945 45.9958 9.27696 45.102 9.95075 44.497C10.6245 43.892 10.6933 42.7713 10.6933 42.7713H11.4358H11.7933H13.0171C13.0171 42.7713 13.0859 43.892 13.7597 44.497C14.4335 45.102 14.681 45.9958 14.681 46.1333C14.681 46.2709 15.341 44.992 15.2241 44.1395Z" fill="white"/>
<path d="M15.9735 30.6501C14.351 31.0833 12.9346 31.0695 12.1508 31.0833C12.0408 31.0833 11.8827 31.0902 11.5252 31.0833C10.7414 31.0764 9.59323 31.0283 7.97066 30.5951C5.07616 29.8182 4.76677 29.4057 4.76677 29.3782V38.9211L6.84999 42.0838C6.84999 42.0838 7.18688 39.0586 10.0745 39.1962C10.0745 39.1962 8.89195 38.1442 9.57948 37.718C9.70324 37.6423 11.6146 37.6492 11.8483 37.6423C12.0821 37.6423 13.9934 37.6423 14.1172 37.718C14.8047 38.1442 13.6222 39.1962 13.6222 39.1962C16.5098 39.0586 16.8467 42.0838 16.8467 42.0838L18.9299 38.9211V29.3713C18.9299 29.4057 18.868 29.8732 15.9735 30.6501Z" fill="white"/>
<path d="M11.3602 33.5653V32.5065C11.3602 32.5065 9.65511 32.4859 8.67194 31.9702C7.68878 31.4546 7.03562 31.1864 7.03562 31.1864L5.80494 32.7334C5.80494 32.7334 6.94624 32.7334 7.28313 32.8021C7.62002 32.8709 8.08754 33.139 9.02946 33.4278C9.97138 33.7165 10.4389 33.6959 10.4389 33.6959C10.4389 33.6959 10.1914 33.8747 9.42823 33.8059C8.66507 33.7372 7.66127 33.8197 7.66127 33.8197C7.66127 33.8197 6.96687 33.8472 7.16625 34.1634C7.36563 34.4797 7.63377 34.8166 8.57569 34.6997C9.52448 34.5966 11.3602 33.5653 11.3602 33.5653Z" fill="#ED711B"/>
<path d="M12.3365 33.5653V32.5065C12.3365 32.5065 14.0416 32.4859 15.0247 31.9702C16.0079 31.4546 16.6611 31.1864 16.6611 31.1864L17.8917 32.7334C17.8917 32.7334 16.7504 32.7334 16.4135 32.8021C16.0766 32.8709 15.6091 33.139 14.6672 33.4278C13.7253 33.7165 13.2578 33.6959 13.2578 33.6959C13.2578 33.6959 13.5053 33.8747 14.2684 33.8059C15.0316 33.7372 16.0354 33.8197 16.0354 33.8197C16.0354 33.8197 16.7298 33.8472 16.5304 34.1634C16.331 34.4797 16.0629 34.8166 15.121 34.6997C14.1791 34.5828 12.3365 33.5653 12.3365 33.5653Z" fill="#ED711B"/>
</svg>
