<svg width="48" height="48" viewBox="0 0 48 48" fill="none" xmlns="http://www.w3.org/2000/svg">
<circle cx="24" cy="24" r="24" fill="#F0F0F0"/>
<path d="M34 30.0048C34 30.5544 33.5544 31 33.0048 31H24.9952C24.4456 31 24 30.5544 24 30.0048C24 29.4552 24.4456 29.0096 24.9952 29.0096H33.0048C33.5544 29.0096 34 29.4552 34 30.0048Z" fill="#474747"/>
<path d="M34 24.0002C34 24.5499 33.5544 24.9954 33.0048 24.9954H14.9952C14.4456 24.9954 14 24.5499 14 24.0002C14 23.4506 14.4456 23.0051 14.9952 23.0051H33.0048C33.5544 23.0051 34 23.4506 34 24.0002Z" fill="#474747"/>
<path d="M33.0048 18.9904C33.5544 18.9904 34 18.5448 34 17.9952C34 17.4456 33.5544 17 33.0048 17H20.9952C20.4456 17 20 17.4456 20 17.9952C20 18.5448 20.4456 18.9904 20.9952 18.9904H33.0048Z" fill="#474747"/>
</svg>
