<svg width="50" height="60" viewBox="0 0 50 60" fill="none" xmlns="http://www.w3.org/2000/svg">
<path d="M30.033 49.65C28.103 49.65 26.533 51.22 26.533 53.15C26.533 55.08 28.103 56.65 30.033 56.65C31.963 56.65 33.533 55.08 33.533 53.15C33.533 51.22 31.963 49.65 30.033 49.65ZM30.033 54.65C29.206 54.65 28.533 53.977 28.533 53.15C28.533 52.323 29.206 51.65 30.033 51.65C30.86 51.65 31.533 52.323 31.533 53.15C31.533 53.977 30.861 54.65 30.033 54.65Z" fill="#ED711B"/>
<path d="M8.56802 21.2111L12.103 24.7461C12.298 24.9411 12.554 25.0391 12.81 25.0391C13.066 25.0391 13.322 24.9411 13.517 24.7461C13.908 24.3551 13.908 23.7231 13.517 23.3321L11.325 21.1401C12.426 19.4751 12.426 17.2901 11.325 15.6251L15.709 11.2401C17.33 12.3181 19.602 12.3181 21.225 11.2401L23.417 13.4321C23.808 13.8231 24.44 13.8231 24.831 13.4321C25.222 13.0411 25.222 12.4091 24.831 12.0181L21.295 8.48206L20.588 9.18906C19.454 10.3221 17.479 10.3221 16.345 9.18906L15.638 8.48206L8.56702 15.5531L9.27402 16.2601C10.443 17.4301 10.443 19.3331 9.27402 20.5031L8.56802 21.2111Z" fill="#ED711B"/>
<path d="M38.337 28.353C37.236 30.018 37.236 32.203 38.337 33.868L33.953 38.253C32.33 37.174 30.058 37.174 28.437 38.253L26.245 36.061C25.854 35.67 25.222 35.67 24.831 36.061C24.44 36.452 24.44 37.084 24.831 37.475L28.367 41.011L29.074 40.304C30.208 39.17 32.183 39.172 33.317 40.304L34.024 41.011L41.095 33.94L40.388 33.233C39.219 32.063 39.219 30.16 40.388 28.99L41.095 28.283L37.56 24.748C37.169 24.357 36.537 24.357 36.146 24.748C35.755 25.139 35.755 25.771 36.146 26.162L38.337 28.353Z" fill="#ED711B"/>
<path d="M42.509 32.11C43.0613 32.11 43.509 31.6623 43.509 31.11C43.509 30.5577 43.0613 30.11 42.509 30.11C41.9567 30.11 41.509 30.5577 41.509 31.11C41.509 31.6623 41.9567 32.11 42.509 32.11Z" fill="#ED711B"/>
<path d="M31.195 43.424C31.7473 43.424 32.195 42.9762 32.195 42.424C32.195 41.8717 31.7473 41.424 31.195 41.424C30.6427 41.424 30.195 41.8717 30.195 42.424C30.195 42.9762 30.6427 43.424 31.195 43.424Z" fill="#ED711B"/>
<path d="M19.174 7.77598C19.565 7.38498 19.932 6.75198 19.542 6.36198C19.151 5.97098 18.518 5.97098 18.128 6.36198C17.737 6.75298 17.37 7.38598 17.76 7.77598C18.151 8.16598 18.784 8.16598 19.174 7.77598Z" fill="#ED711B"/>
<path d="M7.15399 19.382C7.70628 19.382 8.15399 18.9342 8.15399 18.382C8.15399 17.8297 7.70628 17.382 7.15399 17.382C6.60171 17.382 6.15399 17.8297 6.15399 18.382C6.15399 18.9342 6.60171 19.382 7.15399 19.382Z" fill="#ED711B"/>
<path d="M46.533 37.15C46.533 36.27 46.39 35.406 46.12 34.57L49.575 31.115L45.02 26.503C45.963 25.663 46.533 24.453 46.533 23.15C46.533 20.669 44.514 18.65 42.033 18.65C41.851 18.65 41.671 18.668 41.493 18.69C41.515 18.512 41.533 18.333 41.533 18.15C41.533 15.669 39.514 13.65 37.033 13.65C36.851 13.65 36.671 13.668 36.493 13.69C36.515 13.512 36.533 13.333 36.533 13.15C36.533 10.669 34.514 8.65 32.033 8.65C31.851 8.65 31.671 8.668 31.493 8.69C31.515 8.512 31.533 8.333 31.533 8.15C31.533 5.543 29.795 3.65 27.401 3.65C26.093 3.65 24.773 4.216 23.857 5.072L18.847 0L0.0750122 18.374L9.31801 27.618C8.82401 28.34 8.53401 29.211 8.53401 30.15C8.53401 31.714 9.33801 33.092 10.553 33.898C10.613 33.978 10.685 34.059 10.779 34.139L21.534 44.854V46.65H19.534V59.65H37.534H45.534V46.65H43.534V43.621C45.447 42 46.533 39.669 46.533 37.15ZM10.533 30.15C10.533 29.493 10.793 28.899 11.208 28.453L11.361 28.313C11.709 27.995 12.127 27.785 12.568 27.697C12.719 27.668 12.873 27.65 13.032 27.65H15.233H23.032C24.41 27.65 25.532 28.771 25.532 30.15C25.532 30.312 25.514 30.469 25.484 30.623C25.273 31.675 24.374 32.515 23.264 32.622L22.967 32.65H17.177H14.349H13.032C11.655 32.65 10.533 31.529 10.533 30.15ZM19.175 19.089C22.294 15.97 27.369 15.97 30.488 19.089C31.999 20.6 32.831 22.61 32.831 24.746C32.831 26.882 31.999 28.892 30.488 30.403C29.483 31.408 28.236 32.112 26.89 32.468C26.998 32.289 27.092 32.101 27.175 31.907C27.18 31.895 27.183 31.881 27.189 31.869C27.284 31.64 27.355 31.4 27.412 31.154C27.427 31.09 27.44 31.027 27.452 30.963C27.5 30.698 27.534 30.429 27.534 30.15C27.534 27.669 25.515 25.65 23.034 25.65H16.889C16.611 23.232 17.437 20.827 19.175 19.089ZM44.533 23.15C44.533 23.908 44.186 24.612 43.614 25.078L40.126 21.546C40.594 20.989 41.285 20.649 42.033 20.649C43.412 20.65 44.533 21.771 44.533 23.15ZM39.533 18.15C39.533 18.893 39.196 19.58 38.645 20.047L35.157 16.515C35.624 15.978 36.3 15.649 37.033 15.649C38.412 15.65 39.533 16.771 39.533 18.15ZM34.533 13.15C34.533 13.877 34.207 14.55 33.676 15.016L30.188 11.485C30.654 10.968 31.315 10.651 32.032 10.651C33.412 10.65 34.533 11.771 34.533 13.15ZM27.401 5.65C28.874 5.65 29.533 6.906 29.533 8.15C29.533 8.862 29.219 9.519 28.708 9.984L25.258 6.491C25.802 5.998 26.618 5.65 27.401 5.65ZM18.823 2.822L22.727 6.774L22.641 6.97L27.641 11.97L28.214 12.543L32.641 16.97L33.214 17.543L37.641 21.97L38.214 22.543L43.214 27.543L43.23 27.536L46.756 31.106L31.212 46.65H31.179L19.179 34.65H23.033C23.135 34.65 23.231 34.627 23.332 34.62C23.83 34.696 24.329 34.737 24.826 34.737C27.459 34.737 30.019 33.699 31.901 31.817C33.79 29.928 34.83 27.417 34.83 24.746C34.83 22.075 33.79 19.563 31.901 17.675C28.003 13.777 21.658 13.777 17.759 17.675C15.64 19.794 14.607 22.706 14.879 25.651H13.032C12.768 25.651 12.509 25.683 12.252 25.73C12.169 25.745 12.087 25.761 12.006 25.78C11.82 25.825 11.638 25.882 11.46 25.95C11.305 26.008 11.157 26.078 11.011 26.153C10.938 26.191 10.862 26.222 10.791 26.263L2.91901 18.39L18.823 2.822ZM23.181 43.634C23.136 43.595 23.089 43.56 23.001 43.494L14.124 34.65H16.351L28.351 46.65H23.534V43.932L23.181 43.634ZM21.533 57.65V48.65H29.211H29.958C30.097 48.65 30.234 48.661 30.37 48.671L31.194 49.495L31.741 48.948C33.942 49.694 35.532 51.775 35.532 54.224V57.65H21.533ZM43.533 57.65H37.533V54.224C37.533 52.018 36.579 50.035 35.069 48.65H43.533V57.65ZM34.04 46.65L37.769 42.921L44.466 36.224C44.511 36.53 44.533 36.838 44.533 37.15C44.533 39.205 43.585 41.097 41.931 42.341L41.533 42.641V46.65H34.04Z" fill="#ED711B"/>
</svg>
