<svg width="10" height="18" viewBox="0 0 10 18" fill="none" xmlns="http://www.w3.org/2000/svg">
<path d="M5 2.72289C6.01763 2.72289 6.84522 3.58578 6.84522 4.64681C6.84522 5.70465 6.01763 6.56754 5 6.56754C3.98237 6.56754 3.15478 5.70465 3.15478 4.64681C3.15478 3.58578 3.98237 2.72289 5 2.72289ZM5 9.29043C7.45825 9.29043 9.45673 7.20671 9.45673 4.64681C9.45673 2.08371 7.45825 0 5 0C2.54175 0 0.546334 2.08371 0.546334 4.64681C0.546334 7.20671 2.54175 9.29043 5 9.29043ZM6.80231 13.0807C7.70959 12.8634 8.58316 12.4895 9.3893 11.9622C9.99926 11.5627 10.1832 10.7222 9.80003 10.0862C9.41382 9.44702 8.61075 9.25527 7.99772 9.65795C6.17395 10.8532 3.82605 10.8532 1.99922 9.65795C1.38925 9.25527 0.583116 9.44702 0.199972 10.0862C-0.183172 10.7222 0.000736682 11.5627 0.610702 11.9622C1.41684 12.4895 2.29041 12.8634 3.19769 13.0807L0.705722 15.6758C0.196906 16.2063 0.196906 17.0692 0.705722 17.5997C0.963195 17.865 1.29423 17.9992 1.62833 17.9992C1.96243 17.9992 2.29654 17.865 2.55401 17.5997L5 15.0494L7.44906 17.5997C7.95787 18.1334 8.7824 18.1334 9.29428 17.5997C9.80309 17.0692 9.80309 16.2063 9.29428 15.6758L6.80231 13.0807Z" fill="#747474"/>
</svg>
