<svg width="60" height="60" viewBox="0 0 60 60" fill="none" xmlns="http://www.w3.org/2000/svg">
<path d="M45.1877 14.8125C44.1177 13.7423 42.6949 13.1531 41.182 13.1531C39.669 13.1531 38.2462 13.7423 37.1761 14.8125C36.1061 15.8824 35.5169 17.3051 35.5169 18.8181C35.5169 20.3313 36.1061 21.754 37.1761 22.824C38.2462 23.894 39.6686 24.483 41.1814 24.4832C41.182 24.4832 41.182 24.4832 41.182 24.4832C42.6949 24.4832 44.1177 23.894 45.1877 22.824C46.2577 21.7538 46.847 20.3312 46.847 18.8181C46.8468 17.3051 46.2576 15.8825 45.1877 14.8125ZM42.9342 20.5706C42.4661 21.0389 41.8441 21.297 41.1818 21.297C40.5197 21.2968 39.8973 21.0389 39.4294 20.5706C38.9612 20.1027 38.7032 19.4805 38.7032 18.8181C38.7032 18.1563 38.961 17.5338 39.4294 17.0657C39.8973 16.5976 40.5201 16.3398 41.1818 16.3398C41.8436 16.3398 42.4661 16.5975 42.9342 17.0657C43.9009 18.032 43.9009 19.6043 42.9342 20.5706Z" fill="#ED711B"/>
<path d="M1.59316 49.1124C1.18546 49.1124 0.777843 48.957 0.466706 48.6459C-0.155569 48.0237 -0.155569 47.0145 0.466706 46.3925L9.6797 37.1793C10.302 36.5571 11.3108 36.5571 11.9331 37.1793C12.5554 37.8015 12.5554 38.8107 11.9331 39.4329L2.71978 48.6459C2.40873 48.957 2.00103 49.1124 1.59316 49.1124Z" fill="#ED711B"/>
<path d="M3.65329 57.9404C3.24534 57.9404 2.83772 57.7848 2.52658 57.4737C1.90431 56.8515 1.90431 55.8428 2.52658 55.2206L12.1295 45.6176C12.7518 44.9953 13.7607 44.9953 14.3827 45.6176C15.005 46.2399 15.005 47.2488 14.3827 47.871L4.77991 57.4737C4.46886 57.7848 4.0609 57.9404 3.65329 57.9404Z" fill="#ED711B"/>
<path d="M12.4811 60.0002C12.0732 60.0002 11.6655 59.8448 11.3544 59.5337C10.7321 58.9115 10.7321 57.9025 11.3544 57.2804L20.5676 48.0669C21.1898 47.4449 22.1988 47.4448 22.8208 48.0669C23.4431 48.689 23.4431 49.6983 22.8208 50.3205L13.6078 59.5337C13.2967 59.8447 12.889 60.0002 12.4811 60.0002Z" fill="#ED711B"/>
<path d="M59.5334 0.466998C59.1716 0.105308 58.6579 -0.0610692 58.1537 0.0202689C57.9685 0.0502976 53.5523 0.775612 47.5343 3.07495C44.0037 4.42363 40.6496 6.03887 37.5644 7.87583C33.776 10.1313 30.3848 12.731 27.4792 15.6035L15.4463 17.946C15.1357 18.0064 14.8503 18.1583 14.6259 18.3815L3.72428 29.2482C3.22742 29.7433 3.11303 30.5047 3.44166 31.124C3.72176 31.6514 4.26749 31.9701 4.84847 31.9701C4.94957 31.9701 5.0516 31.9605 5.15363 31.9409L17.4498 29.5468C16.6494 31.1173 15.9005 32.7477 15.2054 34.4375C14.9611 35.0323 15.0978 35.7155 15.5524 36.1705L18.5646 39.1827L15.7661 41.9812C15.1438 42.6034 15.1438 43.6121 15.7661 44.2343C16.0773 44.5455 16.4849 44.7011 16.893 44.7011C17.3007 44.7011 17.7083 44.5455 18.0194 44.2346L20.8179 41.436L23.8301 44.4484C24.135 44.7528 24.5425 44.9151 24.9572 44.9151C25.161 44.9151 25.367 44.8758 25.5628 44.7951C27.2527 44.1002 28.8832 43.3513 30.4532 42.5511L28.0598 54.8474C27.9258 55.5357 28.2575 56.2305 28.8764 56.5593C29.1125 56.6844 29.3687 56.7454 29.6233 56.7454C30.0369 56.7454 30.4458 56.5841 30.7518 56.2767L41.6184 45.3752C41.8418 45.1512 41.9934 44.8653 42.0541 44.5548L44.3963 32.5219C47.2686 29.616 49.8688 26.2252 52.1244 22.4365C53.9609 19.351 55.5764 15.9969 56.9253 12.4666C59.2242 6.44817 59.9499 2.03244 59.9797 1.84722C60.0611 1.34187 59.8946 0.828435 59.5334 0.466998ZM9.67745 27.8133L16.5318 20.9812L23.9064 19.5455C22.307 21.513 20.8232 23.6363 19.4612 25.9085L9.67745 27.8133ZM39.0186 43.4685L32.1867 50.3229L34.0913 40.5391C36.3641 39.1771 38.487 37.6935 40.4543 36.0939L39.0186 43.4685ZM53.9185 11.4056C51.9069 16.6519 48.1979 24.2163 41.9544 30.46C39.0801 33.334 35.7333 35.8887 31.9541 38.1007C31.8865 38.1345 31.8208 38.1726 31.7588 38.2156C29.7359 39.3884 27.5896 40.4638 25.3261 41.4374L23.0713 39.1824L27.6227 34.6313C28.2447 34.0091 28.2447 33.0002 27.6227 32.3779C27.0005 31.7557 25.9916 31.7558 25.3693 32.3779L20.818 36.9289L18.5632 34.6739C19.5371 32.4102 20.6123 30.2636 21.7855 28.2402C21.8282 28.1787 21.8655 28.1141 21.899 28.0472C24.1111 24.2673 26.6659 20.92 29.5407 18.0453C35.784 11.8019 43.3485 8.09302 48.5948 6.08135C51.7824 4.85858 54.5266 4.09618 56.3408 3.65912C55.9036 5.47354 55.1411 8.21784 53.9185 11.4056Z" fill="#ED711B"/>
</svg>
