<svg width="61" height="50" viewBox="0 0 61 50" fill="none" xmlns="http://www.w3.org/2000/svg">
<path d="M52.516 33.7501C49.0993 34.0417 45.7123 34.6135 42.3892 35.4597C41.7596 32.1704 37.3384 30.9535 32.7651 30.0246C30.9053 29.6082 29.1094 28.9461 27.4245 28.0556C25.5465 26.9679 23.4341 26.3487 21.266 26.2502C18.8599 26.2972 16.4698 26.6547 14.1552 27.3139C13.8428 26.5571 13.3489 25.889 12.7171 25.3684C12.0852 24.8478 11.3349 24.4908 10.5324 24.3289L1.51144 22.5247C1.34957 22.4901 1.18243 22.488 1.01973 22.5185C0.85703 22.549 0.702007 22.6115 0.563658 22.7024C0.42531 22.7932 0.306392 22.9107 0.213807 23.0479C0.121222 23.1851 0.0568129 23.3394 0.0243193 23.5017C-0.00817428 23.664 -0.00810564 23.8312 0.0245213 23.9934C0.0571482 24.1557 0.121684 24.3099 0.214382 24.4471C0.30708 24.5842 0.426094 24.7016 0.564517 24.7923C0.70294 24.8831 0.858014 24.9455 1.02074 24.9758L10.0417 26.78C10.6683 26.9054 11.2232 27.266 11.5923 27.7876C11.9614 28.3093 12.1168 28.9525 12.0266 29.5852L10.4886 40.3528C10.4014 40.9477 10.1038 41.4915 9.64972 41.8855C9.19566 42.2795 8.6153 42.4976 8.01412 42.5001H1.26609C0.934569 42.5001 0.616627 42.6317 0.382207 42.8662C0.147787 43.1006 0.016091 43.4185 0.016091 43.75C0.016091 44.0816 0.147787 44.3995 0.382207 44.6339C0.616627 44.8683 0.934569 45 1.26609 45H8.01412C8.90026 44.9961 9.76957 44.7578 10.5339 44.3094C11.2982 43.861 11.9304 43.2185 12.3662 42.447C16.29 44.3222 28.5976 50 33.766 50C38.6146 50 48.5939 45.094 55.1967 41.8482C56.9203 41.001 58.3448 40.3004 59.2689 39.8951C59.491 39.7972 59.6799 39.6369 59.8126 39.4336C59.9452 39.2303 60.0159 38.9928 60.016 38.7501C60.016 35.8058 56.9313 33.7501 52.516 33.7501ZM54.0931 39.6046C48.0873 42.5576 38.0335 47.5 33.766 47.5C29.4733 47.5 18.0628 42.423 13.0634 40.011L14.5021 29.9391C14.5083 29.8964 14.5028 29.8551 14.5078 29.8125C16.7042 29.1637 18.9765 28.8065 21.266 28.7502C23.0569 28.858 24.7961 29.3916 26.3393 30.3066C28.2104 31.2889 30.2038 32.0183 32.267 32.4757C37.6991 33.5768 40.016 34.7059 40.016 36.2501C40.0253 36.3811 39.9996 36.5123 39.9415 36.63C39.8833 36.7478 39.7949 36.848 39.6852 36.9203C38.8942 37.5135 35.7899 38.5121 24.1213 35.0514C23.8033 34.9572 23.461 34.9931 23.1696 35.1513C22.8782 35.3095 22.6615 35.577 22.5673 35.8949C22.4731 36.2128 22.509 36.5552 22.6672 36.8466C22.8254 37.138 23.0929 37.3547 23.4108 37.4489C27.7033 38.8909 32.1697 39.751 36.6908 40.0063C38.264 40.1263 39.835 39.7475 41.1805 38.9236C41.4679 38.7038 41.7179 38.4389 41.9207 38.1393C45.3989 37.2394 48.9411 36.6078 52.516 36.2501C53.4018 36.1557 54.2973 36.2675 55.1327 36.5767C55.9681 36.8859 56.7207 37.3841 57.3317 38.0323C56.4589 38.4426 55.3541 38.9857 54.0931 39.6046Z" fill="#ED711B"/>
<path d="M32.9982 24.7356C33.1277 24.8365 33.2758 24.9108 33.4341 24.9544C33.5923 24.998 33.7576 25.01 33.9205 24.9897C34.0834 24.9694 34.2407 24.9172 34.3834 24.8362C34.5261 24.7551 34.6515 24.6467 34.7523 24.5171L52.2523 2.01731C52.4526 1.75546 52.5415 1.42505 52.4993 1.09803C52.4572 0.771009 52.2876 0.473874 52.0274 0.271334C51.7672 0.068793 51.4376 -0.0227467 51.1102 0.0166498C50.7829 0.0560463 50.4843 0.223188 50.2796 0.481674L32.7797 22.9815C32.6788 23.111 32.6044 23.2591 32.5607 23.4174C32.5171 23.5756 32.5051 23.7409 32.5254 23.9038C32.5457 24.0667 32.5979 24.2241 32.679 24.3668C32.7601 24.5095 32.8686 24.6348 32.9982 24.7356Z" fill="#ED711B"/>
<path d="M35.016 9.99992C36.0049 9.99992 36.9716 9.70668 37.7939 9.15727C38.6161 8.60787 39.257 7.82699 39.6354 6.91336C40.0139 5.99974 40.1129 4.99441 39.92 4.02452C39.727 3.05462 39.2508 2.16371 38.5516 1.46446C37.8523 0.765199 36.9614 0.289 35.9915 0.096075C35.0216 -0.0968494 34.0163 0.00216639 33.1026 0.380601C32.189 0.759036 31.4081 1.39989 30.8587 2.22213C30.3093 3.04437 30.0161 4.01106 30.0161 4.99996C30.0174 6.32563 30.5446 7.59662 31.482 8.534C32.4194 9.47139 33.6904 9.9986 35.016 9.99992ZM35.016 2.49998C35.5105 2.49998 35.9938 2.6466 36.405 2.9213C36.8161 3.19601 37.1365 3.58645 37.3257 4.04326C37.515 4.50007 37.5645 5.00273 37.468 5.48768C37.3715 5.97263 37.1334 6.41808 36.7838 6.76771C36.4342 7.11734 35.9887 7.35544 35.5038 7.4519C35.0188 7.54837 34.5161 7.49886 34.0593 7.30964C33.6025 7.12042 33.2121 6.79999 32.9374 6.38887C32.6627 5.97776 32.516 5.49441 32.516 4.99996C32.5169 4.33719 32.7806 3.70181 33.2492 3.23316C33.7179 2.76451 34.3533 2.50084 35.016 2.49998Z" fill="#ED711B"/>
<path d="M45.016 20C45.016 20.9889 45.3092 21.9555 45.8586 22.7778C46.408 23.6 47.1889 24.2409 48.1026 24.6193C49.0162 24.9978 50.0215 25.0968 50.9914 24.9038C51.9613 24.7109 52.8522 24.2347 53.5515 23.5355C54.2508 22.8362 54.727 21.9453 54.9199 20.9754C55.1128 20.0055 55.0138 19.0002 54.6354 18.0866C54.2569 17.1729 53.6161 16.392 52.7938 15.8426C51.9716 15.2932 51.0049 15 50.016 15C48.6903 15.0013 47.4193 15.5285 46.4819 16.4659C45.5445 17.4033 45.0173 18.6743 45.016 20ZM52.516 20C52.516 20.4944 52.3694 20.9778 52.0947 21.3889C51.82 21.8 51.4295 22.1204 50.9727 22.3096C50.5159 22.4989 50.0132 22.5484 49.5283 22.4519C49.0433 22.3554 48.5978 22.1173 48.2482 21.7677C47.8986 21.4181 47.6605 20.9726 47.564 20.4877C47.4676 20.0027 47.5171 19.5001 47.7063 19.0433C47.8955 18.5864 48.2159 18.196 48.6271 17.9213C49.0382 17.6466 49.5215 17.5 50.016 17.5C50.6788 17.5008 51.3141 17.7645 51.7828 18.2332C52.2514 18.7018 52.5151 19.3372 52.516 20Z" fill="#ED711B"/>
</svg>
