<svg width="17" height="16" viewBox="0 0 17 16" fill="none" xmlns="http://www.w3.org/2000/svg">
<path d="M9.94756 16.0001C9.83562 16 9.72595 15.9685 9.63107 15.9091C9.53619 15.8497 9.45993 15.7648 9.41097 15.6641L6.60462 9.89499L0.835473 7.08903C0.731547 7.03837 0.644562 6.95863 0.585082 6.85949C0.525601 6.76035 0.496182 6.64607 0.500397 6.53053C0.504612 6.41499 0.54228 6.30316 0.608827 6.20862C0.675374 6.11408 0.767938 6.04089 0.87528 5.99794L15.6797 0.0432939C15.7883 -0.00049139 15.9074 -0.0113617 16.0222 0.0120363C16.1369 0.0354343 16.2423 0.0920672 16.3251 0.174886C16.4079 0.257704 16.4646 0.363051 16.488 0.477813C16.5114 0.592575 16.5005 0.711684 16.4567 0.820315L10.5017 15.6259C10.4585 15.7332 10.3851 15.8256 10.2904 15.8919C10.1957 15.9583 10.0838 15.9957 9.96826 15.9997L9.94756 16.0001ZM2.56825 6.60578L7.31238 8.91455C7.43262 8.97303 7.52976 9.07017 7.58823 9.19041L9.89701 13.9345L14.8246 1.67217L2.56825 6.60578Z" fill="white"/>
<path d="M7.05124 10.0454C6.93314 10.0454 6.8177 10.0104 6.71952 9.94474C6.62134 9.8791 6.54483 9.78582 6.49966 9.6767C6.45449 9.56758 6.4427 9.44751 6.46578 9.33169C6.48885 9.21586 6.54575 9.10948 6.62929 9.026L15.4802 0.175045C15.5357 0.119608 15.6016 0.0756377 15.674 0.0456453C15.7465 0.0156529 15.8241 0.000225676 15.9025 0.000244157C15.981 0.000262638 16.0586 0.0157266 16.131 0.0457531C16.2035 0.0757796 16.2693 0.119781 16.3247 0.175244C16.3802 0.230707 16.4241 0.296546 16.4541 0.369003C16.4841 0.441459 16.4996 0.519113 16.4995 0.597532C16.4995 0.67595 16.4841 0.753597 16.454 0.826039C16.424 0.898481 16.38 0.9643 16.3245 1.01974L7.47358 9.87229C7.36129 9.98366 7.2094 10.0459 7.05124 10.0454Z" fill="white"/>
</svg>
