<svg width="20" height="19" viewBox="0 0 20 19" fill="none" xmlns="http://www.w3.org/2000/svg">
<path d="M19.5692 13.8626L12.69 1.56345C12.1688 0.521149 11.1265 0 9.98001 0C8.83348 0 7.79119 0.521149 7.27004 1.56345L0.390862 13.8626C-0.130287 14.8006 -0.130287 16.0514 0.390862 16.9895C0.912012 17.9275 1.95431 18.5529 3.10084 18.5529H16.8592C18.0057 18.5529 18.9438 17.9275 19.5692 16.9895C20.1945 16.0514 20.0903 14.9049 19.5692 13.8626ZM17.7973 15.9472C17.693 16.0514 17.4846 16.4683 16.8592 16.4683H3.10084C2.57969 16.4683 2.267 16.1556 2.16277 15.9472C2.05854 15.7387 1.85008 15.426 2.16277 14.9049L9.04195 2.50152C9.35464 1.98037 9.77155 1.98037 9.98001 1.98037C10.1885 1.98037 10.6054 1.98037 10.9181 2.50152L17.7973 14.9049C18.0057 15.426 17.7973 15.8429 17.7973 15.9472Z" fill="#FF8A00"/>
<path d="M9.98004 6.04541C9.35466 6.04541 8.93774 6.46233 8.93774 7.08771V10.2146C8.93774 10.84 9.35466 11.2569 9.98004 11.2569C10.6054 11.2569 11.0223 10.84 11.0223 10.2146V7.08771C11.0223 6.46233 10.6054 6.04541 9.98004 6.04541Z" fill="#FF8A00"/>
<path d="M9.98004 14.3837C10.5557 14.3837 11.0223 13.917 11.0223 13.3414C11.0223 12.7657 10.5557 12.2991 9.98004 12.2991C9.4044 12.2991 8.93774 12.7657 8.93774 13.3414C8.93774 13.917 9.4044 14.3837 9.98004 14.3837Z" fill="#FF8A00"/>
</svg>
