<svg width="58" height="58" viewBox="0 0 58 58" fill="none" xmlns="http://www.w3.org/2000/svg">
<path d="M53.1414 42.5684H46.4098C47.1759 37.2526 47.1759 37.1848 47.1759 37.0934C47.1759 35.4424 46.0639 32.9319 44.0551 32.7104C42.97 32.5886 41.8185 33.0405 40.9328 33.7995C40.9328 33.7995 31.5447 30.6621 30.7946 30.4296C29.3082 29.9674 28.0986 28.8359 27.5201 27.4139C32.1066 25.4189 34.5376 20.2629 34.9251 15.0786V14.3022H36.8744C37.4619 14.3022 37.9373 13.8261 37.9373 13.2393C37.9373 12.6526 37.4619 12.1764 36.8744 12.1764H35.5458L35.3984 10.6817C35.0504 7.16363 32.6354 4.24215 29.246 3.23738L27.3084 2.66305V1.93789C27.3084 1.35113 26.833 0.875 26.2455 0.875H20.1962C19.6101 0.875 19.1347 1.34973 19.1333 1.93508L19.1319 2.65613L17.15 3.2443C13.7745 4.24496 11.3615 7.15402 11.0017 10.6527L10.8447 12.1764H9.543C8.95624 12.1764 8.48011 12.6526 8.48011 13.2393C8.48011 13.8261 8.95624 14.3022 9.543 14.3022H11.5428L11.5442 15.1589C11.9275 20.2491 14.3308 25.3614 18.8647 27.3786C18.2924 28.831 17.1389 29.9632 15.6193 30.4323C14.328 30.8308 9.34788 31.9214 9.34788 31.9214C9.33886 31.9228 9.32983 31.9193 9.32093 31.9214C8.62823 32.0722 2.5346 33.542 1.82046 38.4924C1.39765 41.4486 0.904991 44.265 0.904287 44.2705C0.850264 44.5791 0.935459 44.896 1.13749 45.1368C1.33952 45.3777 1.63706 45.5161 1.95124 45.5161H31.4574L31.4817 55.3229C31.4852 56.3165 32.2947 57.1248 33.2878 57.1248H37.8307C38.2458 57.1248 38.616 56.9552 38.906 56.6986C39.0015 56.7269 49.5501 56.7581 49.5501 56.7581C51.3022 56.7581 52.7187 55.8295 53.2757 54.325C53.2757 54.325 56.8796 48.0751 56.9025 48.0086C57.3239 46.7561 57.1011 45.3459 56.3053 44.2387C55.5426 43.1773 54.3897 42.5684 53.1414 42.5684ZM28.6417 5.27469C31.1987 6.03312 33.02 8.23777 33.2828 10.8922L33.4102 12.1766H27.3083V4.87953L28.6417 5.27469ZM25.1825 3.00078V12.1764H21.2368L21.2568 3.00078H25.1825ZM13.1164 10.8714C13.3877 8.23086 15.2083 6.03723 17.7548 5.2816L19.1269 4.87473L19.111 12.1766H12.9821L13.1164 10.8714ZM13.6672 15.0787V14.3023H32.8005L32.8019 14.9984C32.3839 20.5564 29.2631 26.1629 23.2332 26.1629C17.2033 26.1629 14.0824 20.5564 13.6672 15.0787ZM23.2332 28.2887C24.0317 28.2887 24.7804 28.198 25.4953 28.0521C25.8828 29.0804 26.4869 29.9882 27.2571 30.7307L23.2616 33.9754L19.2017 30.6962C19.9546 29.9578 20.5435 29.0596 20.9213 28.0437C21.6506 28.1959 22.4159 28.2887 23.2332 28.2887ZM17.4066 31.9804L22.5958 36.1704C22.7902 36.3268 23.0269 36.4057 23.2635 36.4057C23.5008 36.4057 23.7383 36.3268 23.9334 36.1677L29.0603 32.0047C29.4139 32.1805 30.4132 32.5313 30.5398 32.5673L27.5844 43.3906H17.9976L15.101 32.7812C15.5307 32.6703 17.0357 32.1686 17.4066 31.9804ZM13.0333 33.2792L15.7944 43.3905H9.08761V34.1851C9.4094 34.0861 12.1524 33.482 13.0333 33.2792ZM3.92468 38.7957C4.18343 36.9993 5.59167 35.8119 6.96183 35.0673V43.3905H3.20925C3.39464 42.2805 3.67144 40.563 3.92468 38.7957ZM33.2559 40.7471C32.7721 40.7471 32.3183 40.9353 31.9771 41.2771C31.636 41.619 31.4485 42.0743 31.4498 42.5573L31.4519 43.3905H29.7877L32.5993 33.0931C32.8927 33.163 39.6825 35.5476 39.6825 35.5476C39.6444 35.6486 38.2451 39.6891 37.8466 40.7472H33.2559V40.7471ZM37.3531 54.9992H33.6066L33.5762 42.8729H37.353V54.9992H37.3531ZM54.9157 47.2407C54.9157 47.2407 51.3215 53.4713 51.2994 53.5392C51.0683 54.2243 50.4149 54.6325 49.55 54.6325H39.4789V42.2418C39.5537 42.1532 39.6235 42.0591 39.6671 41.9443C39.7293 41.7809 41.1936 37.935 41.6137 36.4167C41.8538 35.5489 42.9866 34.7476 43.819 34.8223C44.3595 34.8833 45.0501 36.1565 45.0549 36.9924C45.0259 37.2568 44.4861 41.017 44.1304 43.4791C44.0861 43.785 44.1768 44.0936 44.3789 44.3274C44.5802 44.5599 44.8736 44.6942 45.1823 44.6942H53.1416C53.6966 44.6942 54.2211 44.9807 54.5789 45.4789C54.9564 46.0048 55.0796 46.6566 54.9157 47.2407Z" fill="#ED711B"/>
</svg>
