<svg width="24" height="17" viewBox="0 0 24 17" fill="none" xmlns="http://www.w3.org/2000/svg">
<path d="M23.4985 2.64032C23.2224 1.60107 22.4092 0.782508 21.3766 0.504681C19.505 1.99029e-07 12 0 12 0C12 0 4.49501 1.99029e-07 2.62332 0.504733C1.59074 0.78256 0.777499 1.60107 0.501498 2.64038C-4.97571e-08 4.52412 0 8.45456 0 8.45456C0 8.45456 -4.97571e-08 12.385 0.501498 14.2687C0.777499 15.3081 1.59074 16.0925 2.62332 16.3704C4.49501 16.875 12 16.875 12 16.875C12 16.875 19.505 16.875 21.3766 16.3703C22.4092 16.0924 23.2224 15.308 23.4985 14.2687C24 12.385 24 8.45451 24 8.45451C24 8.45451 24 4.52412 23.4985 2.64032Z" fill="#747474"/>
<path d="M9.54541 12.0238V4.88672L15.8181 8.45533L9.54541 12.0238Z" fill="#2A2929"/>
</svg>
