<svg width="446" height="376" viewBox="0 0 446 376" fill="none" xmlns="http://www.w3.org/2000/svg">
<path d="M0 49H416C432.569 49 446 62.4315 446 79V328C446 344.569 432.569 358 416 358H0V49Z" fill="#E3AA5E" fill-opacity="0.1"/>
<path d="M0 358H215V361C215 369.284 208.284 376 200 376H15C6.71572 376 0 369.284 0 361V358Z" fill="#E3AA5E" fill-opacity="0.1"/>
<path d="M252 49L0 49L2.97237e-06 15C3.69661e-06 6.71572 6.71573 1.44475e-06 15 2.16899e-06L237 2.15768e-05C245.284 2.23011e-05 252 6.71576 252 15L252 49Z" fill="#E3AA5E" fill-opacity="0.1"/>
</svg>
